<?xml version="1.0" encoding="UTF-8" standalone="no"?>
<!DOCTYPE svg PUBLIC "-//W3C//DTD SVG 1.1//EN" "http://www.w3.org/Graphics/SVG/1.1/DTD/svg11.dtd">
<svg width="100%" height="100%" viewBox="0 0 400 400" version="1.1" xmlns="http://www.w3.org/2000/svg" xmlns:xlink="http://www.w3.org/1999/xlink" xml:space="preserve" xmlns:serif="http://www.serif.com/" style="fill-rule:evenodd;clip-rule:evenodd;stroke-linejoin:round;stroke-miterlimit:2;">
    <g transform="matrix(1,0,0,1,-36.0648,-68.521)">
        <path d="M236.065,68.521C346.448,68.521 436.065,158.138 436.065,268.521C436.065,378.904 346.448,468.521 236.065,468.521C125.682,468.521 36.065,378.904 36.065,268.521C36.065,158.138 125.682,68.521 236.065,68.521ZM339.927,364.894C335.2,371.032 296.958,406.021 232.812,406.021C168.666,406.021 119.559,362.131 104.52,344.023C100.345,339.297 105.133,337.087 107.896,338.928C152.89,366.244 223.175,411.239 336.551,357.528C341.155,355.256 344.715,358.755 339.927,364.894ZM364.358,366.244C360.368,375.943 354.536,382.695 351.344,385.273C347.968,388.036 345.513,386.931 347.354,382.941C349.196,378.951 359.202,354.397 355.15,349.179C351.16,344.085 332.438,346.54 325.686,347.215C319.056,347.829 317.706,348.443 317.092,347.031C315.68,343.532 330.412,337.517 340.111,336.289C349.748,335.184 365.279,335.798 368.348,339.788C370.619,342.918 368.348,356.423 364.358,366.244ZM256.445,211.25C226.551,212.355 152.399,220.764 152.399,283.376C152.399,350.591 237.293,353.354 265.039,309.894C269.029,316.155 286.768,332.913 292.845,338.621L327.712,304.246C327.712,304.246 307.885,288.716 307.885,271.836L307.885,181.54C307.885,166.01 292.845,131.021 238.95,131.021C184.933,131.021 156.266,164.782 156.266,195.044L201.383,199.219C211.389,168.834 234.654,168.834 234.654,168.834C259.637,168.772 256.445,187.126 256.445,211.25ZM256.445,264.531C256.445,313.638 204.76,306.272 204.76,275.089C204.76,246.116 235.758,240.284 256.445,239.609L256.445,264.531Z"/>
    </g>
</svg>
