<?xml version="1.0" encoding="UTF-8" standalone="no"?>
<!DOCTYPE svg PUBLIC "-//W3C//DTD SVG 1.1//EN" "http://www.w3.org/Graphics/SVG/1.1/DTD/svg11.dtd">
<svg width="100%" height="100%" viewBox="0 0 400 400" version="1.1" xmlns="http://www.w3.org/2000/svg" xmlns:xlink="http://www.w3.org/1999/xlink" xml:space="preserve" xmlns:serif="http://www.serif.com/" style="fill-rule:evenodd;clip-rule:evenodd;stroke-linejoin:round;stroke-miterlimit:2;">
    <g transform="matrix(1,0,0,1,-120.709,-229.582)">
        <path d="M320.709,229.582C431.092,229.582 520.709,319.199 520.709,429.582C520.709,539.965 431.092,629.582 320.709,629.582C210.326,629.582 120.709,539.965 120.709,429.582C120.709,319.199 210.326,229.582 320.709,229.582ZM420.508,380.839C418.913,382.077 390.75,397.946 390.75,433.232C390.75,474.046 426.586,488.485 427.659,488.843C427.494,489.723 421.966,508.617 408.764,527.869C396.993,544.811 384.7,561.725 365.998,561.725C347.296,561.725 342.483,550.861 320.893,550.861C299.854,550.861 292.373,562.082 275.266,562.082C258.159,562.082 246.223,546.406 232.499,527.154C216.603,504.547 203.759,469.426 203.759,436.092C203.759,382.627 238.522,354.272 272.736,354.272C290.915,354.272 306.069,366.208 317.483,366.208C328.346,366.208 345.288,353.557 365.97,353.557C373.808,353.557 401.971,354.272 420.508,380.839ZM356.152,330.922C364.705,320.773 370.756,306.692 370.756,292.611C370.756,290.658 370.591,288.678 370.233,287.082C356.317,287.605 339.76,296.351 329.777,307.93C321.938,316.84 314.623,330.922 314.623,345.196C314.623,347.341 314.98,349.486 315.145,350.174C316.025,350.339 317.455,350.531 318.885,350.531C331.372,350.531 347.076,342.17 356.152,330.922Z"/>
    </g>
</svg>
