<?xml version="1.0" encoding="UTF-8" standalone="no"?>
<!DOCTYPE svg PUBLIC "-//W3C//DTD SVG 1.1//EN" "http://www.w3.org/Graphics/SVG/1.1/DTD/svg11.dtd">
<svg width="100%" height="100%" viewBox="0 0 400 400" version="1.1" xmlns="http://www.w3.org/2000/svg" xmlns:xlink="http://www.w3.org/1999/xlink" xml:space="preserve" xmlns:serif="http://www.serif.com/" style="fill-rule:evenodd;clip-rule:evenodd;stroke-linejoin:round;stroke-miterlimit:2;">
    <g transform="matrix(1,0,0,1,-43.7959,-44.024)">
        <path d="M243.796,44.024C354.179,44.024 443.796,133.641 443.796,244.024C443.796,354.407 354.179,444.024 243.796,444.024C133.413,444.024 43.796,354.407 43.796,244.024C43.796,133.641 133.413,44.024 243.796,44.024ZM115.22,133.378C115.183,133.377 115.146,133.377 115.109,133.377C110.315,133.377 106.355,137.288 106.296,142.082C106.305,142.598 106.342,143.113 106.406,143.624L143.811,370.644C144.763,376.369 149.741,380.623 155.545,380.67L334.968,380.67C339.308,380.728 343.077,377.571 343.782,373.288L381.187,143.679C381.944,138.923 378.668,134.381 373.916,133.598C373.404,133.532 372.889,133.495 372.373,133.488L115.22,133.378ZM272.718,297.431L215.426,297.431L199.946,216.451L286.6,216.451L272.718,297.431Z"/>
    </g>
</svg>
