<?xml version="1.0" encoding="UTF-8" standalone="no"?>
<!DOCTYPE svg PUBLIC "-//W3C//DTD SVG 1.1//EN" "http://www.w3.org/Graphics/SVG/1.1/DTD/svg11.dtd">
<svg width="100%" height="100%" viewBox="0 0 400 400" version="1.1" xmlns="http://www.w3.org/2000/svg" xmlns:xlink="http://www.w3.org/1999/xlink" xml:space="preserve" xmlns:serif="http://www.serif.com/" style="fill-rule:evenodd;clip-rule:evenodd;stroke-linejoin:round;stroke-miterlimit:2;">
    <g transform="matrix(1,0,0,1,14.9342,41.7347)">
        <path d="M185.066,-41.735C295.449,-41.735 385.066,47.882 385.066,158.265C385.066,268.648 295.449,358.265 185.066,358.265C74.683,358.265 -14.934,268.648 -14.934,158.265C-14.934,47.882 74.683,-41.735 185.066,-41.735ZM185.066,164.488C172.614,140.271 138.704,95.14 107.176,72.882C76.973,51.56 65.451,55.255 57.898,58.668C49.155,62.618 47.566,76.041 47.566,83.938C47.566,91.834 51.895,148.681 54.719,158.17C64.049,189.523 97.265,200.118 127.854,196.718C129.417,196.486 131.003,196.272 132.609,196.073C131.034,196.325 129.447,196.541 127.854,196.718C83.026,203.357 43.215,219.693 95.43,277.823C152.866,337.292 174.146,265.071 185.066,228.454C195.986,265.071 208.563,334.688 273.673,277.823C322.566,228.454 287.106,203.359 242.278,196.719C240.685,196.542 239.098,196.327 237.523,196.075C239.128,196.273 240.714,196.488 242.278,196.719C272.867,200.12 306.082,189.525 315.413,158.173C318.237,148.684 322.566,91.836 322.566,83.94C322.566,76.042 320.976,62.62 312.233,58.67C304.68,55.257 293.158,51.562 262.956,72.884C231.428,95.142 197.518,140.271 185.066,164.488Z"/>
    </g>
</svg>
