<?xml version="1.0" encoding="UTF-8"?>
<svg clip-rule="evenodd" fill-rule="evenodd" stroke-linejoin="round" stroke-miterlimit="2" version="1.1" viewBox="0 0 400 400" xml:space="preserve" xmlns="http://www.w3.org/2000/svg">
    <g transform="translate(-17.02 -31.921)">
        <path d="m217.02 31.921c-110.38 0-200 89.617-200 200s89.617 200 200 200 200-89.617 200-200-89.62-200-200-200zm-99.244 67.268h179.29c12.377 0 20.836 8.4322 20.836 20.499v48.76l-26.047-0.10575v-38.736c0-3.6241-2.9384-6.562-6.562-6.562h-157.49c-3.6241 0-6.562 2.9379-6.562 6.562v157.49c0 3.6236 2.9379 6.562 6.562 6.562h79.008l1.0669 24.024h-90.1c-12.377 0-21.615-9.7824-21.615-21.849v-174.8c0-12.067 9.2381-21.849 21.615-21.849zm29.713 58.905h77.871v21.497h-77.871zm136.26 23.91c39.595 1e-5 71.694 32.097 71.694 71.692 0 19.522-7.8261 37.2-20.483 50.128v72.775c0 3.8796-2.1923 7.424-5.6622 9.159-3.4699 1.735-7.6213 1.3613-10.725-0.96564l-34.824-26.116-34.822 26.116c-3.1035 2.3269-7.2546 2.7006-10.725 0.96564-3.4697-1.735-5.6622-5.2794-5.6622-9.159v-72.775c-12.657-12.929-20.483-30.606-20.483-50.128 0-39.595 32.097-71.692 71.692-71.692zm0 20.483c-28.282 1e-5 -51.209 22.927-51.209 51.209 0 28.282 22.927 51.209 51.209 51.209 28.282 0 51.211-22.927 51.211-51.209 0-28.282-22.929-51.209-51.211-51.209zm-136.26-0.69805h48.26v21.497h-48.26zm105.54 116.61v37.719l24.58-18.435c3.642-2.7305 8.6481-2.7305 12.29 0l24.583 18.435v-37.719c-9.3235 4.4368-19.715 6.9912-30.728 6.9912-11.012 0-21.402-2.555-30.725-6.9912z" stroke="#000"/>
    </g>
</svg>
