<?xml version="1.0" encoding="UTF-8" standalone="no"?>
<!DOCTYPE svg PUBLIC "-//W3C//DTD SVG 1.1//EN" "http://www.w3.org/Graphics/SVG/1.1/DTD/svg11.dtd">
<svg width="100%" height="100%" viewBox="0 0 400 400" version="1.1" xmlns="http://www.w3.org/2000/svg" xmlns:xlink="http://www.w3.org/1999/xlink" xml:space="preserve" xmlns:serif="http://www.serif.com/" style="fill-rule:evenodd;clip-rule:evenodd;stroke-linejoin:round;stroke-miterlimit:2;">
    <g transform="matrix(1,0,0,1,-74.8538,-86.4749)">
        <path d="M274.854,86.475C385.237,86.475 474.854,176.092 474.854,286.475C474.854,396.858 385.237,486.475 274.854,486.475C164.471,486.475 74.854,396.858 74.854,286.475C74.854,176.092 164.471,86.475 274.854,86.475ZM407.135,234.753L281.452,150.965C277.162,148.325 272.584,148.301 268.255,150.965L142.571,234.753C139.349,236.901 137.354,240.738 137.354,244.574L137.354,328.363C137.354,332.199 139.349,336.036 142.572,338.184L268.255,421.985C272.545,424.625 277.123,424.649 281.452,421.985L407.136,338.184C410.358,336.037 412.354,332.199 412.354,328.363L412.354,244.574C412.353,240.738 410.358,236.901 407.135,234.753ZM263.037,390.055L170.501,328.363L211.781,300.74L263.037,334.962L263.037,390.055ZM286.67,390.055L286.67,334.962L337.926,300.74L379.206,328.363L286.67,390.055ZM274.854,314.399L233.112,286.469L274.854,258.539L316.595,286.469L274.854,314.399ZM160.987,266.673L190.604,286.469L160.987,306.265L160.987,266.673ZM388.72,306.265L359.103,286.469L388.72,266.673L388.72,306.265ZM286.67,182.883L379.206,244.574L337.926,272.197L286.67,237.976L286.67,182.883ZM263.037,182.883L263.037,237.976L211.781,272.197L170.501,244.574L263.037,182.883Z"/>
    </g>
</svg>
