<?xml version="1.0" encoding="UTF-8" standalone="no"?>
<!DOCTYPE svg PUBLIC "-//W3C//DTD SVG 1.1//EN" "http://www.w3.org/Graphics/SVG/1.1/DTD/svg11.dtd">
<svg width="100%" height="100%" viewBox="0 0 400 400" version="1.1" xmlns="http://www.w3.org/2000/svg" xmlns:xlink="http://www.w3.org/1999/xlink" xml:space="preserve" xmlns:serif="http://www.serif.com/" style="fill-rule:evenodd;clip-rule:evenodd;stroke-linejoin:round;stroke-miterlimit:2;">
    <g transform="matrix(1,0,0,1,-118.204,-48.7228)">
        <path d="M318.204,48.723C428.587,48.723 518.204,138.34 518.204,248.723C518.204,359.106 428.587,448.723 318.204,448.723C207.821,448.723 118.204,359.106 118.204,248.723C118.204,138.34 207.821,48.723 318.204,48.723ZM413.861,161.657C413.784,161.509 413.658,161.392 413.503,161.329C395.674,153.149 376.858,147.315 357.528,143.975C357.168,143.908 356.804,144.081 356.628,144.401C354.066,149.051 351.74,153.827 349.66,158.712C328.823,155.549 307.627,155.549 286.79,158.712C284.696,153.815 282.333,149.037 279.712,144.401C279.528,144.088 279.17,143.919 278.812,143.975C259.48,147.308 240.663,153.142 222.835,161.33C222.683,161.394 222.554,161.505 222.467,161.646C186.815,214.887 177.049,266.818 181.84,318.107C181.867,318.361 181.996,318.593 182.198,318.75C202.957,334.121 226.177,345.854 250.866,353.447C251.221,353.554 251.608,353.427 251.831,353.131C257.134,345.916 261.832,338.276 265.879,330.288C265.941,330.166 265.973,330.032 265.973,329.895C265.973,329.531 265.744,329.203 265.402,329.078C257.993,326.243 250.82,322.825 243.95,318.858C243.681,318.699 243.516,318.41 243.516,318.098C243.516,317.822 243.645,317.562 243.864,317.396C245.305,316.316 246.748,315.192 248.124,314.058C248.373,313.853 248.718,313.806 249.013,313.938C294.018,334.477 342.742,334.477 387.215,313.938C387.51,313.798 387.861,313.84 388.115,314.047C389.491,315.182 390.933,316.316 392.385,317.396C392.608,317.562 392.739,317.824 392.739,318.101C392.739,318.411 392.576,318.699 392.31,318.858C385.456,322.859 378.276,326.274 370.847,329.067C370.508,329.196 370.282,329.524 370.282,329.887C370.282,330.026 370.316,330.164 370.38,330.288C374.494,338.231 379.186,345.862 384.417,353.119C384.634,353.423 385.024,353.555 385.382,353.446C410.115,345.878 433.376,334.144 454.161,318.75C454.366,318.601 454.496,318.37 454.519,318.118C460.255,258.823 444.916,207.317 413.861,161.657ZM272.6,286.877C259.05,286.877 247.886,274.443 247.886,259.172C247.886,243.901 258.834,231.466 272.6,231.466C286.474,231.466 297.531,244.009 297.314,259.171C297.314,274.443 286.366,286.877 272.6,286.877ZM363.977,286.877C350.428,286.877 339.263,274.443 339.263,259.172C339.263,243.901 350.211,231.466 363.977,231.466C377.852,231.466 388.908,244.009 388.692,259.171C388.692,274.443 377.852,286.877 363.977,286.877Z"/>
    </g>
</svg>
