<?xml version="1.0" encoding="UTF-8" standalone="no"?>
<!DOCTYPE svg PUBLIC "-//W3C//DTD SVG 1.1//EN" "http://www.w3.org/Graphics/SVG/1.1/DTD/svg11.dtd">
<svg width="100%" height="100%" viewBox="0 0 400 400" version="1.1" xmlns="http://www.w3.org/2000/svg" xmlns:xlink="http://www.w3.org/1999/xlink" xml:space="preserve" xmlns:serif="http://www.serif.com/" style="fill-rule:evenodd;clip-rule:evenodd;stroke-linejoin:round;stroke-miterlimit:2;">
    <g transform="matrix(1,0,0,1,-54.3415,-73.3474)">
        <path d="M254.342,73.347C364.725,73.347 454.342,162.964 454.342,273.347C454.342,383.73 364.725,473.347 254.342,473.347C143.959,473.347 54.342,383.73 54.342,273.347C54.342,162.964 143.959,73.347 254.342,73.347ZM116.842,230.379L116.842,342.097C116.842,361.057 132.257,376.472 151.217,376.472L357.467,376.472C376.426,376.472 391.842,361.057 391.842,342.097L391.842,230.379L274.967,318.035C262.72,327.219 245.963,327.219 233.717,318.035L116.842,230.379ZM142.623,170.222C128.389,170.222 116.842,181.77 116.842,196.004C116.842,204.114 120.655,211.741 127.154,216.629L244.029,304.285C250.152,308.85 258.531,308.85 264.654,304.285L381.529,216.629C388.028,211.741 391.842,204.114 391.842,196.004C391.842,181.77 380.294,170.222 366.06,170.222L142.623,170.222Z"/>
    </g>
</svg>
