<?xml version="1.0" encoding="UTF-8" standalone="no"?>
<!DOCTYPE svg PUBLIC "-//W3C//DTD SVG 1.1//EN" "http://www.w3.org/Graphics/SVG/1.1/DTD/svg11.dtd">
<svg width="100%" height="100%" viewBox="0 0 400 400" version="1.1" xmlns="http://www.w3.org/2000/svg" xmlns:xlink="http://www.w3.org/1999/xlink" xml:space="preserve" xmlns:serif="http://www.serif.com/" style="fill-rule:evenodd;clip-rule:evenodd;stroke-linejoin:round;stroke-miterlimit:2;">
    <g transform="matrix(1,0,0,1,8.72269,-48.4682)">
        <g transform="matrix(1,0,0,1,9.31092,0.914766)">
            <path d="M181.966,47.553C292.349,47.553 381.966,137.17 381.966,247.553C381.966,357.936 292.349,447.553 181.966,447.553C71.583,447.553 -18.034,357.936 -18.034,247.553C-18.034,137.17 71.583,47.553 181.966,47.553ZM299.824,304.027C298.749,310.625 291.383,371.549 290.309,385.053C217.95,382.415 155.329,382.142 64.109,385.053L64.109,369.401C92.013,363.908 101.324,364.478 101.553,347.763C102.654,303.369 103.717,197.898 101.553,150.106C100.922,132.637 94.108,133.677 64.109,128.008L64.109,112.355C109.463,113.803 221.211,117.604 286.932,110.053C284.784,133.533 282.175,187.704 282.175,187.704L267.904,187.704C261.119,161.41 256.389,132.152 234.296,132.152L150.2,132.152C143.908,132.152 143.601,134.3 143.601,138.137L143.601,238.653C179.204,238.96 197.926,237.118 197.926,237.118C216.2,236.534 214.844,231.899 222.94,197.065L238.747,197.065C236.041,259.278 236.346,235.018 237.672,295.432L221.866,295.432C216.246,270.826 216.301,257.96 197.619,257.681C197.619,257.681 184.421,256.453 143.601,256.453L143.601,341.777C143.601,357.737 152.348,365.256 170.763,365.256L225.549,365.256C264.611,365.256 266.409,349.913 286.166,304.026L299.824,304.026L299.824,304.027Z"/>
        </g>
    </g>
</svg>
