<?xml version="1.0" encoding="UTF-8" standalone="no"?>
<!DOCTYPE svg PUBLIC "-//W3C//DTD SVG 1.1//EN" "http://www.w3.org/Graphics/SVG/1.1/DTD/svg11.dtd">
<svg width="100%" height="100%" viewBox="0 0 400 400" version="1.1" xmlns="http://www.w3.org/2000/svg" xmlns:xlink="http://www.w3.org/1999/xlink" xml:space="preserve" xmlns:serif="http://www.serif.com/" style="fill-rule:evenodd;clip-rule:evenodd;stroke-linejoin:round;stroke-miterlimit:2;">
    <g transform="matrix(1,0,0,1,-21.8535,-51.5678)">
        <path d="M221.854,51.568C332.237,51.568 421.854,141.185 421.854,251.568C421.854,361.951 332.237,451.568 221.854,451.568C111.471,451.568 21.854,361.951 21.854,251.568C21.854,141.185 111.471,51.568 221.854,51.568ZM320.068,126.568L123.639,126.568C108.851,126.568 96.854,138.566 96.854,153.354L96.854,349.782C96.854,364.57 108.851,376.568 123.639,376.568L320.068,376.568C334.856,376.568 346.854,364.57 346.854,349.782L346.854,153.354C346.854,138.566 334.856,126.568 320.068,126.568ZM177.49,286.724C157.903,286.724 142.054,270.876 142.054,251.289C142.054,231.702 157.903,215.854 177.49,215.854C197.077,215.854 212.925,231.702 212.925,251.289C212.925,270.876 197.077,286.724 177.49,286.724ZM266.217,286.724C246.63,286.724 230.782,270.876 230.782,251.289C230.782,231.702 246.63,215.854 266.217,215.854C285.804,215.854 301.653,231.702 301.653,251.289C301.653,270.876 285.804,286.724 266.217,286.724Z"/>
    </g>
</svg>
