<?xml version="1.0" encoding="UTF-8" standalone="no"?>
<!DOCTYPE svg PUBLIC "-//W3C//DTD SVG 1.1//EN" "http://www.w3.org/Graphics/SVG/1.1/DTD/svg11.dtd">
<svg width="100%" height="100%" viewBox="0 0 400 400" version="1.1" xmlns="http://www.w3.org/2000/svg" xmlns:xlink="http://www.w3.org/1999/xlink" xml:space="preserve" xmlns:serif="http://www.serif.com/" style="fill-rule:evenodd;clip-rule:evenodd;stroke-linejoin:round;stroke-miterlimit:2;">
    <g transform="matrix(1,0,0,1,15.9976,-63.4886)">
        <g transform="matrix(1,0,0,1,-1.503,0.220888)">
            <path d="M185.505,63.268C295.888,63.268 385.505,152.885 385.505,263.268C385.505,373.651 295.888,463.268 185.505,463.268C75.122,463.268 -14.495,373.651 -14.495,263.268C-14.495,152.885 75.122,63.268 185.505,63.268ZM265.219,125.768L118.466,125.768C98.323,125.768 91.662,140.969 91.662,150.531L91.662,383.551C91.662,394.456 98.162,398.431 101.438,399.72C104.769,401.063 113.686,402.191 119.111,395.906C188.351,315.654 189.533,314.311 189.533,314.311C191.198,312.485 191.359,312.646 193.185,312.646L237.985,312.646C256.839,312.646 259.793,299.11 261.781,291.321L287.887,160.791C292.453,138.015 286.705,125.768 265.219,125.768ZM256.463,165.41L250.339,197.479C249.695,200.97 245.236,204.569 241.261,204.569L184.107,204.569C177.662,204.569 173.042,209.028 173.042,215.474L173.042,222.457C173.042,228.903 177.662,233.522 184.107,233.522L232.667,233.522C237.125,233.522 241.584,238.464 240.617,243.299C239.65,248.079 234.977,272.198 234.493,274.884C234.01,277.516 230.84,282.135 225.415,282.135L185.934,282.135C178.682,282.135 176.695,283.102 171.699,288.904C171.699,288.904 166.918,295.027 123.623,347.078C123.14,347.562 122.656,347.4 122.656,346.917L122.656,164.927C122.656,160.791 126.309,156.01 131.573,156.01L249.211,156.01C253.616,156.01 257.591,160.146 256.463,165.41Z"/>
        </g>
    </g>
</svg>
