<?xml version="1.0" encoding="UTF-8" standalone="no"?>
<!DOCTYPE svg PUBLIC "-//W3C//DTD SVG 1.1//EN" "http://www.w3.org/Graphics/SVG/1.1/DTD/svg11.dtd">
<svg width="100%" height="100%" viewBox="0 0 400 400" version="1.1" xmlns="http://www.w3.org/2000/svg" xmlns:xlink="http://www.w3.org/1999/xlink" xml:space="preserve" xmlns:serif="http://www.serif.com/" style="fill-rule:evenodd;clip-rule:evenodd;stroke-linejoin:round;stroke-miterlimit:2;">
    <g transform="matrix(1,0,0,1,-43.3845,-38.6637)">
        <path d="M243.385,38.664C353.768,38.664 443.385,128.281 443.385,238.664C443.385,349.047 353.768,438.664 243.385,438.664C133.002,438.664 43.385,349.047 43.385,238.664C43.385,128.281 133.002,38.664 243.385,38.664ZM376.4,227.055L376.024,226.088L338.576,128.424C337.824,126.505 336.481,124.883 334.708,123.782C333.418,122.949 331.967,122.43 330.409,122.272C328.851,122.113 327.347,122.316 325.896,122.868C324.446,123.416 323.156,124.297 322.082,125.436C321.061,126.575 320.309,127.945 319.879,129.434L294.627,206.8L192.277,206.8L166.972,129.434C166.542,127.945 165.79,126.581 164.769,125.442C163.695,124.303 162.405,123.427 160.955,122.879C159.536,122.328 157.989,122.124 156.452,122.281C154.916,122.437 153.438,122.949 152.133,123.782C150.392,124.883 149.043,126.505 148.286,128.424L110.863,226.088L110.474,227.055C105.087,241.132 104.423,256.605 108.583,271.111C112.745,285.564 121.503,298.351 133.538,307.431L133.683,307.538L134,307.753L190.934,350.466L219.195,371.796L236.387,384.798C238.375,385.818 240.847,387.108 243.372,387.108C245.897,387.108 248.368,385.818 250.356,384.798L267.549,371.796L295.809,350.466L353.136,307.538L353.297,307.377C365.332,298.297 374.089,285.564 377.797,271.111C382.417,256.605 381.772,241.132 376.4,227.055Z"/>
    </g>
</svg>
