<?xml version="1.0" encoding="UTF-8" standalone="no"?>
<!DOCTYPE svg PUBLIC "-//W3C//DTD SVG 1.1//EN" "http://www.w3.org/Graphics/SVG/1.1/DTD/svg11.dtd">
<svg width="100%" height="100%" viewBox="0 0 400 400" version="1.1" xmlns="http://www.w3.org/2000/svg" xmlns:xlink="http://www.w3.org/1999/xlink" xml:space="preserve" xmlns:serif="http://www.serif.com/" style="fill-rule:evenodd;clip-rule:evenodd;stroke-linejoin:round;stroke-miterlimit:2;">
    <g transform="matrix(1,0,0,1,-55.2341,-58.6146)">
        <path d="M255.234,58.615C365.617,58.615 455.234,148.232 455.234,258.615C455.234,368.998 365.617,458.615 255.234,458.615C144.851,458.615 55.234,368.998 55.234,258.615C55.234,148.232 144.851,58.615 255.234,58.615ZM390.516,261.83C390.516,340.283 336.792,396.115 257.452,396.115C181.383,396.115 119.952,334.683 119.952,258.615C119.952,182.546 181.383,121.115 257.452,121.115C294.488,121.115 325.647,134.698 349.654,157.098L312.23,193.08C263.273,145.842 172.235,181.326 172.235,258.615C172.235,306.573 210.547,345.439 257.452,345.439C311.897,345.439 332.301,306.407 335.516,286.17L257.452,286.17L257.452,238.877L388.354,238.877C389.629,245.918 390.516,252.682 390.516,261.83Z"/>
    </g>
</svg>
