<?xml version="1.0" encoding="UTF-8" standalone="no"?>
<!DOCTYPE svg PUBLIC "-//W3C//DTD SVG 1.1//EN" "http://www.w3.org/Graphics/SVG/1.1/DTD/svg11.dtd">
<svg width="100%" height="100%" viewBox="0 0 400 400" version="1.1" xmlns="http://www.w3.org/2000/svg" xmlns:xlink="http://www.w3.org/1999/xlink" xml:space="preserve" xmlns:serif="http://www.serif.com/" style="fill-rule:evenodd;clip-rule:evenodd;stroke-linejoin:round;stroke-miterlimit:2;">
    <g transform="matrix(1,0,0,1,-30.84,-28.5794)">
        <path d="M230.84,28.579C341.223,28.579 430.84,118.196 430.84,228.579C430.84,338.962 341.223,428.579 230.84,428.579C120.457,428.579 30.84,338.962 30.84,228.579C30.84,118.196 120.457,28.579 230.84,28.579ZM367.374,171.892C366.331,149.868 361.3,130.359 345.165,114.285C329.092,98.211 309.582,93.181 287.558,92.076C264.858,90.788 196.822,90.788 174.122,92.076C152.159,93.119 132.65,98.15 116.515,114.224C100.38,130.297 95.411,149.806 94.306,171.831C93.018,194.53 93.018,262.567 94.306,285.267C95.349,307.291 100.38,326.8 116.515,342.874C132.65,358.948 152.098,363.978 174.122,365.083C196.822,366.371 264.858,366.371 287.558,365.083C309.582,364.04 329.092,359.009 345.165,342.874C361.239,326.8 366.269,307.291 367.374,285.267C368.662,262.567 368.662,194.592 367.374,171.892ZM338.049,309.622C333.263,321.647 324,330.911 311.914,335.757C293.815,342.935 250.871,341.279 230.871,341.279C210.871,341.279 167.865,342.874 149.828,335.757C137.803,330.972 128.539,321.708 123.693,309.622C116.515,291.524 118.171,248.579 118.171,228.579C118.171,208.579 116.576,165.573 123.693,147.536C128.478,135.512 137.742,126.248 149.828,121.402C167.926,114.224 210.871,115.88 230.871,115.88C250.871,115.88 293.877,114.285 311.914,121.402C323.938,126.187 333.202,135.451 338.049,147.536C345.227,165.635 343.57,208.579 343.57,228.579C343.57,248.579 345.227,291.586 338.049,309.622ZM230.871,158.089C191.852,158.089 160.38,189.561 160.38,228.579C160.38,267.598 191.852,299.07 230.871,299.07C269.889,299.07 301.362,267.598 301.362,228.579C301.362,189.561 269.889,158.089 230.871,158.089ZM230.871,274.408C205.656,274.408 185.042,253.856 185.042,228.579C185.042,203.303 205.595,182.751 230.871,182.751C256.147,182.751 276.699,203.303 276.699,228.579C276.699,253.856 256.085,274.408 230.871,274.408ZM320.687,155.205C320.687,164.346 313.325,171.647 304.245,171.647C295.104,171.647 287.803,164.285 287.803,155.205C287.803,146.125 295.165,138.763 304.245,138.763C313.325,138.763 320.687,146.125 320.687,155.205Z"/>
    </g>
</svg>
