<?xml version="1.0" encoding="UTF-8" standalone="no"?>
<!DOCTYPE svg PUBLIC "-//W3C//DTD SVG 1.1//EN" "http://www.w3.org/Graphics/SVG/1.1/DTD/svg11.dtd">
<svg width="100%" height="100%" viewBox="0 0 400 400" version="1.1" xmlns="http://www.w3.org/2000/svg" xmlns:xlink="http://www.w3.org/1999/xlink" xml:space="preserve" xmlns:serif="http://www.serif.com/" style="fill-rule:evenodd;clip-rule:evenodd;stroke-linejoin:round;stroke-miterlimit:2;">
    <g transform="matrix(1,0,0,1,-11.2527,-24.5157)">
        <path d="M211.253,24.516C321.636,24.516 411.253,114.133 411.253,224.516C411.253,334.899 321.636,424.516 211.253,424.516C100.87,424.516 11.253,334.899 11.253,224.516C11.253,114.133 100.87,24.516 211.253,24.516ZM318.115,219.968C312.284,210.994 293.949,187.772 264.552,174.722C260.828,173.061 257.068,171.573 253.27,170.26C255.636,164.474 256.854,158.283 256.854,152.032C256.854,131.342 243.516,112.86 223.879,106.341C216.262,103.824 209.558,102.658 203.985,102.799C203.617,101.571 202.825,96.047 209.755,81.315L195.698,73.016L192.334,77.656C187,85.059 181.948,92.112 177.393,99.073C175.721,98.678 174.019,98.421 172.305,98.306C146.812,96.802 148.365,96.876 147.101,96.876C116.034,96.876 115.948,128.869 115.948,125.038L114.5,147.554C113.512,164.127 126.623,178.375 143.737,179.381L149.218,179.713C138.795,185.653 129.235,192.993 120.804,201.528C82.347,240.384 82.347,282.948 82.347,317.181L82.347,337.831L96.662,319.538C98.581,327.594 101.587,335.35 105.599,342.594C109.147,348.812 114.727,348.395 117.655,347.094C120.239,345.946 123.793,342.846 119.957,334.749C115.052,324.449 111.788,313.445 110.283,302.136L139.023,265.41L123.885,310.902C159.629,284.875 220.491,272.991 268.904,287.214C289.897,293.383 310.307,287.637 320.921,272.58C321.363,271.966 321.657,271.254 322.056,270.603C323.161,276.356 323.737,282.198 323.775,288.055C323.775,302.357 321.51,320.545 314.641,338.168C313.094,342.134 315.721,347.069 319.92,347.83C324.475,348.794 329.33,345.927 331.196,340.986C337.089,325.302 340.158,307.501 340.158,288.055C340.158,264.373 332.178,240.507 318.115,219.968ZM249.415,310.57C243.353,310.57 238.366,315.558 238.366,321.619C238.366,327.681 243.353,332.668 249.415,332.668C255.477,332.668 260.464,327.681 260.464,321.619C260.464,315.558 255.477,310.57 249.415,310.57ZM188.811,310.57C182.749,310.57 177.762,315.558 177.762,321.619C177.762,327.681 182.749,332.668 188.811,332.668C194.872,332.668 199.86,327.681 199.86,321.619C199.86,315.558 194.872,310.57 188.811,310.57ZM252.251,237.99C249.567,240.07 245.677,239.693 243.442,237.137L237.5,230.084L216.372,246.658C214.296,248.29 211.263,247.995 209.54,245.995L199.854,234.553C198.341,232.586 198.712,229.723 200.676,228.206L221.897,211.522L213.217,201.246L202.726,209.502C200.751,211.043 197.878,210.772 196.226,208.888C194.574,207.005 193.942,206.175 193.893,206.108C192.385,204.135 192.764,201.272 194.734,199.761L205.114,191.603C205.114,191.603 193.752,178.098 193.697,178.012C192.904,176.985 192.474,175.724 192.474,174.426C192.474,172.606 193.321,170.885 194.765,169.775C197.428,167.67 201.328,168.044 203.543,170.616L253.319,229.74C254.113,230.769 254.543,232.032 254.543,233.332C254.543,235.154 253.695,236.878 252.251,237.99ZM161.145,132.3L151.508,131.729L150.655,145.105L158.714,145.583C158.357,149.583 158.423,153.61 158.911,157.596L145.173,156.774C141.159,156.607 137.948,153.259 137.948,149.243C137.948,149.136 137.95,149.029 137.954,148.923L139.434,126.419C140.048,118.949 147.948,119.502 147.573,119.471L165.442,120.533C163.734,124.349 162.298,128.281 161.145,132.3Z"/>
    </g>
</svg>
