<?xml version="1.0" encoding="UTF-8" standalone="no"?>
<!DOCTYPE svg PUBLIC "-//W3C//DTD SVG 1.1//EN" "http://www.w3.org/Graphics/SVG/1.1/DTD/svg11.dtd">
<svg width="100%" height="100%" viewBox="0 0 401 401" version="1.1" xmlns="http://www.w3.org/2000/svg" xmlns:xlink="http://www.w3.org/1999/xlink" xml:space="preserve" xmlns:serif="http://www.serif.com/" style="fill-rule:evenodd;clip-rule:evenodd;stroke-linecap:round;stroke-linejoin:round;stroke-miterlimit:1.5;">
    <g transform="matrix(1,0,0,1,7.55162,-45.7617)">
        <path d="M192.948,46.262C303.331,46.262 392.948,135.879 392.948,246.262C392.948,356.645 303.331,446.262 192.948,446.262C82.565,446.262 -7.052,356.645 -7.052,246.262C-7.052,135.879 82.565,46.262 192.948,46.262ZM165.504,159.35C165.504,124.847 145.551,108.762 120.441,108.762C91.156,108.762 75.071,130.986 75.071,158.736L75.071,332.479C75.071,361.518 90.604,383.68 121.055,383.68C145.489,383.68 165.504,367.964 165.504,332.479L165.504,285.513L234.325,370.42C248.262,387.119 278.59,389.267 297.683,370.42C314.259,353.475 314.444,329.041 302.226,313.815L246.481,243.336L292.465,177.399C303.147,162.235 303.209,138.66 286.08,122.268C267.478,104.464 235.492,102.868 216.337,130.127L165.504,202.693L165.504,159.35Z" style="stroke:black;stroke-width:1px;"/>
    </g>
</svg>
