<?xml version="1.0" encoding="UTF-8" standalone="no"?>
<!DOCTYPE svg PUBLIC "-//W3C//DTD SVG 1.1//EN" "http://www.w3.org/Graphics/SVG/1.1/DTD/svg11.dtd">
<svg width="100%" height="100%" viewBox="0 0 400 400" version="1.1" xmlns="http://www.w3.org/2000/svg" xmlns:xlink="http://www.w3.org/1999/xlink" xml:space="preserve" xmlns:serif="http://www.serif.com/" style="fill-rule:evenodd;clip-rule:evenodd;stroke-linejoin:round;stroke-miterlimit:2;">
    <g transform="matrix(1,0,0,1,-17.0199,-31.9208)">
        <path d="M217.02,31.921C327.403,31.921 417.02,121.538 417.02,231.921C417.02,342.304 327.403,431.921 217.02,431.921C106.637,431.921 17.02,342.304 17.02,231.921C17.02,121.538 106.637,31.921 217.02,31.921ZM141.076,368.418L84.062,368.418L84.062,184.818L141.076,184.818L141.076,368.418ZM354.52,368.418L297.568,368.418L297.568,279.043C297.568,257.742 297.138,230.427 267.926,230.427C238.283,230.427 233.741,253.568 233.741,277.508L233.741,368.418L176.789,368.418L176.789,184.818L231.47,184.818L231.47,209.863L232.268,209.863C239.879,195.438 258.472,180.215 286.212,180.215C343.913,180.215 354.52,218.211 354.52,267.564L354.52,368.418ZM112.538,159.774C94.307,159.774 79.52,144.673 79.52,126.442C79.52,108.329 94.425,93.424 112.538,93.424C130.652,93.424 145.557,108.329 145.557,126.442C145.557,144.673 130.763,159.774 112.538,159.774Z"/>
    </g>
</svg>
