<?xml version="1.0" encoding="UTF-8" standalone="no"?>
<!DOCTYPE svg PUBLIC "-//W3C//DTD SVG 1.1//EN" "http://www.w3.org/Graphics/SVG/1.1/DTD/svg11.dtd">
<svg width="100%" height="100%" viewBox="0 0 400 400" version="1.1" xmlns="http://www.w3.org/2000/svg" xmlns:xlink="http://www.w3.org/1999/xlink" xml:space="preserve" xmlns:serif="http://www.serif.com/" style="fill-rule:evenodd;clip-rule:evenodd;stroke-linejoin:round;stroke-miterlimit:2;">
    <g transform="matrix(1,0,0,1,-124.012,-64.8117)">
        <g transform="matrix(1,0,0,1,26.3439,-10.3415)">
            <path d="M297.668,75.153C408.051,75.153 497.668,164.77 497.668,275.153C497.668,385.536 408.051,475.153 297.668,475.153C187.285,475.153 97.668,385.536 97.668,275.153C97.668,164.77 187.285,75.153 297.668,75.153ZM179.45,269.345C153.74,297.392 153.74,342.813 179.45,370.859C202.202,395.679 238.058,398.906 264.223,378.504L264.951,377.958C271.503,372.845 273.005,362.917 268.318,355.818C263.631,348.72 254.531,347.032 248.024,352.145L247.296,352.691C232.689,364.059 212.713,362.272 200.063,348.422C185.729,332.736 185.729,307.419 200.063,291.783L251.118,236.037C265.451,220.4 288.658,220.4 302.992,236.037C315.687,249.886 317.325,271.678 306.905,287.613L306.404,288.407C301.718,295.555 303.265,305.483 309.772,310.547C316.279,315.61 325.425,313.972 330.066,306.873L330.567,306.079C349.314,277.536 346.357,238.42 323.605,213.599C297.895,185.553 256.26,185.553 230.55,213.599L179.45,269.345ZM415.886,280.961C441.595,252.914 441.595,207.494 415.886,179.447C393.134,154.627 357.277,151.4 331.113,171.803L330.385,172.349C323.832,177.461 322.331,187.39 327.018,194.488C331.704,201.587 340.805,203.274 347.312,198.161L348.04,197.615C362.647,186.248 382.623,188.035 395.273,201.884C409.606,217.521 409.606,242.838 395.273,258.474L344.218,314.27C329.884,329.906 306.678,329.906 292.344,314.27C279.648,300.42 278.01,278.628 288.431,262.743L288.931,261.949C293.618,254.801 292.071,244.873 285.564,239.809C279.057,234.746 269.911,236.384 265.269,243.483L264.769,244.277C246.021,272.77 248.979,311.887 271.731,336.707C297.44,364.754 339.076,364.754 364.785,336.707L415.886,280.961Z"/>
        </g>
    </g>
</svg>
