<?xml version="1.0" encoding="UTF-8" standalone="no"?>
<!DOCTYPE svg PUBLIC "-//W3C//DTD SVG 1.1//EN" "http://www.w3.org/Graphics/SVG/1.1/DTD/svg11.dtd">
<svg width="100%" height="100%" viewBox="0 0 400 400" version="1.1" xmlns="http://www.w3.org/2000/svg" xmlns:xlink="http://www.w3.org/1999/xlink" xml:space="preserve" xmlns:serif="http://www.serif.com/" style="fill-rule:evenodd;clip-rule:evenodd;stroke-linejoin:round;stroke-miterlimit:2;">
    <g transform="matrix(1,0,0,1,-32.1029,-50.7158)">
        <path d="M232.103,50.716C342.486,50.716 432.103,140.333 432.103,250.716C432.103,361.099 342.486,450.716 232.103,450.716C121.72,450.716 32.103,361.099 32.103,250.716C32.103,140.333 121.72,50.716 232.103,50.716ZM360.365,203.505C360.365,143.849 321.263,126.358 321.263,126.358C282.892,108.743 180.987,108.927 142.984,126.358C142.984,126.358 103.876,143.849 103.876,203.505C103.876,274.515 99.826,362.709 168.706,380.937C193.568,387.504 214.933,388.916 232.124,387.934C263.308,386.216 280.806,376.825 280.806,376.825L279.762,354.178C279.762,354.178 257.477,361.175 232.43,360.377C207.629,359.518 181.49,357.677 177.421,327.235C177.044,324.407 176.859,321.557 176.868,318.704C229.423,331.531 274.238,324.289 286.575,322.816C321.018,318.704 351.017,297.469 354.841,278.074C360.856,247.51 360.365,203.505 360.365,203.505ZM314.261,280.345L285.642,280.345L285.642,210.256C285.642,179.753 246.362,178.587 246.362,214.491L246.362,252.85L217.928,252.85L217.928,214.485C217.928,178.581 178.648,179.747 178.648,210.25L178.648,280.339L149.968,280.339C149.968,205.401 146.777,189.567 161.267,172.934C177.163,155.197 210.256,154.031 224.992,176.678L232.111,188.646L239.231,176.678C254.028,153.908 287.176,155.32 302.955,172.934C317.507,189.69 314.248,205.463 314.248,280.339L314.261,280.345Z"/>
    </g>
</svg>
