<?xml version="1.0" encoding="UTF-8" standalone="no"?>
<!DOCTYPE svg PUBLIC "-//W3C//DTD SVG 1.1//EN" "http://www.w3.org/Graphics/SVG/1.1/DTD/svg11.dtd">
<svg width="100%" height="100%" viewBox="0 0 400 400" version="1.1" xmlns="http://www.w3.org/2000/svg" xmlns:xlink="http://www.w3.org/1999/xlink" xml:space="preserve" xmlns:serif="http://www.serif.com/" style="fill-rule:evenodd;clip-rule:evenodd;stroke-linejoin:round;stroke-miterlimit:2;">
    <g transform="matrix(1,0,0,1,-113.455,-62.2305)">
        <path d="M313.455,62.23C423.838,62.23 513.455,151.847 513.455,262.23C513.455,372.613 423.838,462.23 313.455,462.23C203.072,462.23 113.455,372.613 113.455,262.23C113.455,151.847 203.072,62.23 313.455,62.23ZM253.514,184.14C210.679,184.14 175.955,219.104 175.955,262.23C175.955,305.357 210.682,340.321 253.514,340.321C296.345,340.321 331.072,305.36 331.072,262.23C331.072,219.101 296.35,184.14 253.514,184.14ZM377.371,188.714C355.953,188.714 338.594,221.637 338.594,262.232C338.594,302.827 355.956,335.751 377.374,335.751C398.791,335.751 416.153,302.829 416.153,262.232L416.15,262.232C416.15,221.625 398.791,188.714 377.372,188.714L377.371,188.714ZM437.315,196.372C429.784,196.372 423.679,225.86 423.679,262.232C423.679,298.603 429.78,328.092 437.315,328.092C444.85,328.092 450.955,298.595 450.955,262.23C450.955,225.858 444.847,196.372 437.316,196.372L437.315,196.372Z"/>
    </g>
</svg>
