<?xml version="1.0" encoding="UTF-8" standalone="no"?>
<!DOCTYPE svg PUBLIC "-//W3C//DTD SVG 1.1//EN" "http://www.w3.org/Graphics/SVG/1.1/DTD/svg11.dtd">
<svg width="100%" height="100%" viewBox="0 0 700 700" version="1.1" xmlns="http://www.w3.org/2000/svg" xmlns:xlink="http://www.w3.org/1999/xlink" xml:space="preserve" xmlns:serif="http://www.serif.com/" style="fill-rule:evenodd;clip-rule:evenodd;stroke-linejoin:round;stroke-miterlimit:2;">
    <g transform="matrix(1,0,0,1,-49.5059,-75.3067)">
        <path d="M399.506,75.307C592.676,75.307 749.506,232.136 749.506,425.307C749.506,618.477 592.676,775.307 399.506,775.307C206.336,775.307 49.506,618.477 49.506,425.307C49.506,232.136 206.336,75.307 399.506,75.307ZM598.69,407.511L598.69,407.021L567.016,351.348L567.016,428.245L547.098,441.307L547.098,243.592L251.098,243.592L251.098,440.817L231.179,427.756L231.179,351.348L199.506,407.021L199.506,607.021L599.506,607.021L599.506,407.021L598.69,407.511ZM270.2,262.694L527.996,262.694L527.996,453.878L399.506,538.286L270.2,453.388L270.2,262.694ZM496.322,443.919L302.853,443.919L302.853,415.511L496.322,415.511L496.322,443.919ZM496.322,390.858L302.853,390.858L302.853,362.45L496.322,362.45L496.322,390.858ZM345.139,337.96L302.853,337.96L302.853,295.674L345.139,295.674L345.139,337.96ZM496.322,337.96L366.036,337.96L366.036,309.552L496.322,309.552L496.322,337.96Z"/>
    </g>
</svg>
