<?xml version="1.0" encoding="UTF-8" standalone="no"?>
<!DOCTYPE svg PUBLIC "-//W3C//DTD SVG 1.1//EN" "http://www.w3.org/Graphics/SVG/1.1/DTD/svg11.dtd">
<svg width="100%" height="100%" viewBox="0 0 400 400" version="1.1" xmlns="http://www.w3.org/2000/svg" xmlns:xlink="http://www.w3.org/1999/xlink" xml:space="preserve" xmlns:serif="http://www.serif.com/" style="fill-rule:evenodd;clip-rule:evenodd;stroke-linejoin:round;stroke-miterlimit:2;">
    <g transform="matrix(1,0,0,1,-41.0708,-34.2113)">
        <path d="M241.071,34.211C351.454,34.211 441.071,123.828 441.071,234.211C441.071,344.594 351.454,434.211 241.071,434.211C130.688,434.211 41.071,344.594 41.071,234.211C41.071,123.828 130.688,34.211 241.071,34.211ZM122.571,366.072L170.911,366.072L170.911,102.351L122.571,102.351L122.571,366.072ZM397.571,201.34C397.571,255.749 353.313,300.061 298.85,300.061C244.226,300.061 199.807,255.803 199.807,201.34C199.807,146.77 244.226,102.351 298.85,102.351C353.313,102.351 397.571,146.77 397.571,201.34Z"/>
    </g>
</svg>
