<?xml version="1.0" encoding="UTF-8" standalone="no"?>
<!DOCTYPE svg PUBLIC "-//W3C//DTD SVG 1.1//EN" "http://www.w3.org/Graphics/SVG/1.1/DTD/svg11.dtd">
<svg width="100%" height="100%" viewBox="0 0 400 400" version="1.1" xmlns="http://www.w3.org/2000/svg" xmlns:xlink="http://www.w3.org/1999/xlink" xml:space="preserve" xmlns:serif="http://www.serif.com/" style="fill-rule:evenodd;clip-rule:evenodd;stroke-linejoin:round;stroke-miterlimit:2;">
    <g transform="matrix(1,0,0,1,0.816327,-54.4082)">
        <g transform="matrix(1,0,0,1,-23.2461,0)">
            <path d="M222.43,54.408C332.813,54.408 422.43,144.025 422.43,254.408C422.43,364.791 332.813,454.408 222.43,454.408C112.047,454.408 22.43,364.791 22.43,254.408C22.43,144.025 112.047,54.408 222.43,54.408ZM322.522,191.313C321.431,190.525 321.006,190.221 320.703,192.101C319.49,199.014 317.61,205.745 315.367,212.476C291.171,281.484 224.104,275.48 191.359,275.48C187.66,275.48 185.234,277.482 184.749,281.181C171.045,366.318 168.316,384.086 168.316,384.086C167.71,388.391 170.438,391.908 174.744,391.908L213.25,391.908C218.465,391.908 222.77,388.088 223.801,382.873C224.225,379.598 223.134,386.572 232.533,327.509C235.323,314.168 241.205,315.563 250.3,315.563C293.354,315.563 326.949,298.099 336.954,247.465C340.896,226.362 339.744,204.168 322.522,191.313ZM173.531,278.573C171.409,290.216 162.98,344.488 160.493,359.83C160.312,360.921 159.887,361.346 158.674,361.346L113.437,361.346C108.829,361.346 105.493,357.344 106.1,352.917L141.635,127.399C142.544,121.578 147.759,117.151 153.762,117.151C246.116,117.151 253.878,114.907 277.467,124.064C313.911,138.193 317.246,172.272 304.148,209.141C291.111,247.101 260.185,263.413 219.192,263.898C192.875,264.323 177.048,259.654 173.531,278.573Z"/>
        </g>
    </g>
</svg>
