<?xml version="1.0" encoding="UTF-8"?>
<svg clip-rule="evenodd" fill-rule="evenodd" stroke-linejoin="round" stroke-miterlimit="2" version="1.1" viewBox="0 0 400 400" xml:space="preserve" xmlns="http://www.w3.org/2000/svg">
    <g transform="translate(-17.02 -31.921)">
        <path d="m217.02 31.921c110.38 0 200 89.617 200 200s-89.617 200-200 200-200-89.617-200-200 89.617-200 200-200zm-11.625 82.388c-45.058-24.958-101.81-8.7544-126.81 36.281-24.998 45.036-8.7544 101.81 36.281 126.81 33.217 18.411 74.283 14.832 103.82-9.0392l36.591 20.311-16.974 30.579 61.158 33.947 16.974-30.579 30.579 16.974 33.947-61.158-128.31-71.22c4.6354-37.702-14.033-74.495-47.262-92.901zm-28.289 50.965c16.888 9.3743 22.98 30.664 13.606 47.553-9.3743 16.888-30.664 22.98-47.553 13.606-16.888-9.3743-22.98-30.664-13.606-47.553 9.3743-16.888 30.664-22.98 47.553-13.606z"/>
    </g>
</svg>
