<?xml version="1.0" encoding="UTF-8" standalone="no"?>
<!DOCTYPE svg PUBLIC "-//W3C//DTD SVG 1.1//EN" "http://www.w3.org/Graphics/SVG/1.1/DTD/svg11.dtd">
<svg width="100%" height="100%" viewBox="0 0 496 496" version="1.1" xmlns="http://www.w3.org/2000/svg" xmlns:xlink="http://www.w3.org/1999/xlink" xml:space="preserve" xmlns:serif="http://www.serif.com/" style="fill-rule:evenodd;clip-rule:evenodd;stroke-linejoin:round;stroke-miterlimit:2;">
    <g transform="matrix(1,0,0,1,0,-8)">
        <path d="M496,256C496,393 385,504 248,504C222.4,504 197.8,500.1 174.6,492.9C184.7,476.4 199.8,449.4 205.4,427.9C208.4,416.3 220.8,368.9 220.8,368.9C228.9,384.3 252.5,397.4 277.6,397.4C352.4,397.4 406.3,328.6 406.3,243.1C406.3,161.2 339.4,99.9 253.4,99.9C146.4,99.9 89.5,171.7 89.5,250C89.5,286.4 108.9,331.7 139.8,346.1C144.5,348.3 147,347.3 148.1,342.8C148.9,339.4 153.1,322.5 155,314.7C155.6,312.2 155.3,310 153.3,307.6C143.2,295.1 135,272.3 135,251C135,196.3 176.4,143.4 247,143.4C307.9,143.4 350.6,184.9 350.6,244.3C350.6,311.4 316.7,357.9 272.6,357.9C248.3,357.9 230,337.8 235.9,313.1C242.9,283.6 256.4,251.8 256.4,230.5C256.4,211.5 246.2,195.6 225,195.6C200.1,195.6 180.1,221.3 180.1,255.8C180.1,277.8 187.5,292.6 187.5,292.6C187.5,292.6 163,396.4 158.5,415.8C153.5,437.2 155.5,467.4 157.6,487C65.4,450.9 0,361.1 0,256C0,119 111,8 248,8C385,8 496,119 496,256Z" style="fill-rule:nonzero;"/>
    </g>
</svg>
