<?xml version="1.0" encoding="UTF-8" standalone="no"?>
<!DOCTYPE svg PUBLIC "-//W3C//DTD SVG 1.1//EN" "http://www.w3.org/Graphics/SVG/1.1/DTD/svg11.dtd">
<svg width="100%" height="100%" viewBox="0 0 658 658" version="1.1" xmlns="http://www.w3.org/2000/svg" xmlns:xlink="http://www.w3.org/1999/xlink" xml:space="preserve" xmlns:serif="http://www.serif.com/" style="fill-rule:evenodd;clip-rule:evenodd;stroke-linejoin:round;stroke-miterlimit:2;">
    <g transform="matrix(1,0,0,1,-65.764,-140.039)">
        <path d="M394.584,140.039C335.268,140.039 279.819,154.997 228.24,184.913C178.723,214.313 139.523,253.772 110.638,303.288C80.722,354.352 65.764,409.671 65.764,469.246C65.764,528.82 80.722,584.139 110.638,635.203C139.523,684.72 178.723,723.92 228.24,752.805C279.819,782.721 335.268,797.679 394.584,797.679C453.901,797.679 509.349,782.721 560.928,752.805C610.445,723.92 649.645,684.72 678.53,635.203C708.446,584.139 723.404,528.82 723.404,469.246C723.404,409.671 708.446,354.352 678.53,303.288C649.645,253.772 610.445,214.313 560.928,184.913C509.349,154.997 453.901,140.039 394.584,140.039ZM341.973,340.426L428.627,340.426C447.195,340.426 464.346,344.939 480.077,353.965C495.809,362.992 508.317,375.113 517.602,390.329C526.886,405.545 531.528,422.308 531.528,440.619C531.528,458.93 526.886,475.693 517.602,490.909C508.317,506.125 495.809,518.246 480.077,527.273C464.346,536.299 447.195,540.812 428.627,540.812L368.279,540.812L282.398,622.824L282.398,398.453C282.398,382.463 288.201,368.794 299.807,357.447C311.412,346.099 325.467,340.426 341.973,340.426Z" style="fill-rule:nonzero;"/>
    </g>
</svg>
