<?xml version="1.0" encoding="UTF-8" standalone="no"?>
<!DOCTYPE svg PUBLIC "-//W3C//DTD SVG 1.1//EN" "http://www.w3.org/Graphics/SVG/1.1/DTD/svg11.dtd">
<svg width="100%" height="100%" viewBox="0 0 400 400" version="1.1" xmlns="http://www.w3.org/2000/svg" xmlns:xlink="http://www.w3.org/1999/xlink" xml:space="preserve" xmlns:serif="http://www.serif.com/" style="fill-rule:evenodd;clip-rule:evenodd;stroke-linejoin:round;stroke-miterlimit:2;">
    <g transform="matrix(1,0,0,1,70.1332,49.7419)">
        <g transform="matrix(1,0,0,1,-3.70023e-05,-3.7001e-05)">
            <g transform="matrix(1,0,0,1,-43.0555,-50.4608)">
                <path d="M172.922,0.719C283.305,0.719 372.922,90.336 372.922,200.719C372.922,311.102 283.305,400.719 172.922,400.719C62.539,400.719 -27.078,311.102 -27.078,200.719C-27.078,90.336 62.539,0.719 172.922,0.719ZM191.592,323.933C179.215,325.795 166.63,325.795 154.252,323.933L152.319,336.672C165.978,338.735 179.867,338.735 193.526,336.672L191.592,323.933ZM109.114,307.885L90.659,312.182L93.581,324.728L107.159,321.57C117.462,327.181 128.444,331.442 139.836,334.244L142.93,321.742C131.061,318.782 119.695,314.084 109.2,307.799L109.114,307.885ZM243.993,318.434L237.376,307.391C226.659,313.864 215.027,318.68 202.872,321.677L205.965,334.18C219.362,330.877 232.183,325.568 243.993,318.434ZM79.229,314.803L52.61,321.011L58.819,294.394L46.272,291.451L40.063,318.069C39.046,322.41 40.346,326.969 43.499,330.121C46.652,333.274 51.211,334.574 55.553,333.557L82.151,327.456L79.229,314.803ZM172.922,88.998C132.271,89.02 94.839,111.119 75.185,146.702C55.532,182.285 56.76,225.734 78.391,260.151L67.649,305.973L113.475,295.232C153.67,320.547 205.479,317.677 242.632,288.078C279.784,258.479 294.154,208.623 278.457,163.793C262.759,118.961 220.425,88.959 172.922,88.998ZM273.233,274.631C265.8,284.695 256.901,293.587 246.829,301.011L254.477,311.387C265.588,303.219 275.408,293.428 283.61,282.342L273.233,274.631ZM48.958,279.958L61.504,282.88L65.801,264.426C59.539,253.9 54.869,242.506 51.944,230.612L39.44,233.706C42.243,245.097 46.503,256.079 52.116,266.381L48.958,279.958ZM306.405,233.706L293.901,230.612C290.908,242.781 286.091,254.428 279.614,265.156L290.657,271.816C297.799,259.98 303.109,247.131 306.405,233.706ZM48.313,200.708C48.309,194.459 48.776,188.218 49.71,182.039L36.969,180.107C34.907,193.763 34.907,207.653 36.969,221.311L49.71,219.377C48.776,213.198 48.309,206.957 48.313,200.708ZM297.532,200.708C297.536,206.957 297.069,213.198 296.135,219.377L308.876,221.311C310.938,207.653 310.938,193.763 308.876,180.107L296.135,182.039C297.069,188.218 297.536,194.459 297.532,200.708ZM55.188,129.643C48.05,141.466 42.74,154.301 39.44,167.71L51.944,170.804C54.937,158.635 59.753,146.989 66.231,136.26L55.188,129.643ZM290.657,129.643L279.614,136.26C286.087,146.975 290.904,158.607 293.901,170.761L306.405,167.667C303.101,154.272 297.792,141.453 290.657,129.643ZM246.829,100.405C256.902,107.836 265.803,116.735 273.233,126.807L283.61,119.074C275.434,107.995 265.644,98.204 254.563,90.029L246.829,100.405ZM72.612,126.807C80.042,116.735 88.943,107.836 99.016,100.405L91.282,90.029C80.202,98.204 70.411,107.995 62.235,119.074L72.612,126.807ZM139.922,67.237L143.016,79.739C130.846,82.732 119.199,87.548 108.469,94.025L101.852,82.984C113.676,75.845 126.511,70.537 139.922,67.237ZM205.922,67.237L202.829,79.739C214.998,82.732 226.646,87.548 237.376,94.025L244.036,82.984C232.199,75.841 219.349,70.532 205.922,67.237ZM154.252,77.505C166.63,75.643 179.215,75.643 191.592,77.505L193.526,64.766C179.867,62.703 165.978,62.703 152.319,64.766L154.252,77.505Z"/>
            </g>
        </g>
    </g>
</svg>
