<?xml version="1.0" encoding="UTF-8" standalone="no"?>
<!DOCTYPE svg PUBLIC "-//W3C//DTD SVG 1.1//EN" "http://www.w3.org/Graphics/SVG/1.1/DTD/svg11.dtd">
<svg width="100%" height="100%" viewBox="0 0 400 400" version="1.1" xmlns="http://www.w3.org/2000/svg" xmlns:xlink="http://www.w3.org/1999/xlink" xml:space="preserve" xmlns:serif="http://www.serif.com/" style="fill-rule:evenodd;clip-rule:evenodd;stroke-linejoin:round;stroke-miterlimit:2;">
    <g transform="matrix(1,0,0,1,-53.0876,-70.8739)">
        <path d="M253.088,70.874C363.471,70.874 453.088,160.491 453.088,270.874C453.088,381.257 363.471,470.874 253.088,470.874C142.705,470.874 53.088,381.257 53.088,270.874C53.088,160.491 142.705,70.874 253.088,70.874ZM376.343,297.797C378.123,289.201 379.229,280.053 379.229,270.905C379.229,201.218 322.804,144.856 253.179,144.856C244.031,144.856 234.944,145.899 226.287,147.741C214.622,138.716 200.132,133.374 184.353,133.374C146.409,133.374 115.588,164.196 115.588,202.139C115.588,217.919 120.929,232.408 129.893,244.013C128.113,252.608 127.008,261.756 127.008,270.905C127.008,340.591 183.432,396.954 253.057,396.954C262.205,396.954 271.292,395.91 279.949,394.068C291.614,403.032 306.104,408.374 321.822,408.374C359.766,408.374 390.587,377.552 390.587,339.608C390.649,323.891 385.307,309.401 376.343,297.797ZM256.863,353.975C216.587,353.975 182.879,336.047 182.879,314.067C182.879,304.243 188.405,295.279 200.992,295.279C220.148,295.279 221.928,322.847 255.083,322.847C270.862,322.847 281.054,315.848 281.054,306.699C281.054,295.218 271.23,293.438 255.267,289.508C216.894,280.053 182.941,276.001 182.941,235.969C182.941,199.622 218.92,186.176 249.925,186.176C283.755,186.176 317.954,199.622 317.954,220.19C317.954,230.566 310.955,239.715 299.35,239.715C281.975,239.715 281.422,219.147 253.302,219.147C237.523,219.147 227.515,223.444 227.515,232.961C227.515,245.118 240.286,246.346 269.941,253.222C295.36,258.932 325.629,269.677 325.629,300.867C325.629,337.153 290.571,353.975 256.863,353.975Z"/>
    </g>
</svg>
