<?xml version="1.0" encoding="UTF-8" standalone="no"?>
<!DOCTYPE svg PUBLIC "-//W3C//DTD SVG 1.1//EN" "http://www.w3.org/Graphics/SVG/1.1/DTD/svg11.dtd">
<svg width="100%" height="100%" viewBox="0 0 400 400" version="1.1" xmlns="http://www.w3.org/2000/svg" xmlns:xlink="http://www.w3.org/1999/xlink" xml:space="preserve" xmlns:serif="http://www.serif.com/" style="fill-rule:evenodd;clip-rule:evenodd;stroke-linejoin:round;stroke-miterlimit:2;">
    <g transform="matrix(1,0,0,1,-30.898,-65.5894)">
        <path d="M230.898,65.589C341.281,65.589 430.898,155.206 430.898,265.589C430.898,375.972 341.281,465.589 230.898,465.589C120.515,465.589 30.898,375.972 30.898,265.589C30.898,155.206 120.515,65.589 230.898,65.589ZM159.809,305.165C159.809,287.822 173.978,273.652 191.322,273.652C208.666,273.652 222.835,287.822 222.835,305.165L222.835,384.076C222.835,401.42 208.666,415.589 191.322,415.589C173.978,415.589 159.809,401.42 159.809,384.076L159.809,305.165ZM270.474,352.563C287.818,352.563 301.987,366.732 301.987,384.076C301.987,401.42 287.818,415.589 270.474,415.589C253.13,415.589 238.96,401.42 238.96,384.076L238.96,352.563L270.474,352.563ZM143.925,305.165C143.925,322.509 129.755,336.679 112.411,336.679C95.068,336.679 80.898,322.509 80.898,305.165C80.898,287.822 95.068,273.652 112.411,273.652L143.925,273.652L143.925,305.165ZM270.474,336.679C253.13,336.679 238.96,322.509 238.96,305.165C238.96,287.822 253.13,273.652 270.474,273.652L349.385,273.652C366.728,273.652 380.898,287.822 380.898,305.165C380.898,322.509 366.728,336.679 349.385,336.679L270.474,336.679ZM191.322,194.5C208.666,194.5 222.835,208.67 222.835,226.014C222.835,243.357 208.666,257.527 191.322,257.527L112.411,257.527C95.068,257.527 80.898,243.357 80.898,226.014C80.898,208.67 95.068,194.5 112.411,194.5L191.322,194.5ZM317.871,226.014C317.871,208.67 332.041,194.5 349.385,194.5C366.728,194.5 380.898,208.67 380.898,226.014C380.898,243.357 366.728,257.527 349.385,257.527L317.871,257.527L317.871,226.014ZM301.987,226.014C301.987,243.357 287.818,257.527 270.474,257.527C253.13,257.527 238.96,243.357 238.96,226.014L238.96,147.103C238.96,129.759 253.13,115.589 270.474,115.589C287.818,115.589 301.987,129.759 301.987,147.103L301.987,226.014ZM191.322,178.616C173.978,178.616 159.809,164.447 159.809,147.103C159.809,129.759 173.978,115.589 191.322,115.589C208.666,115.589 222.835,129.759 222.835,147.103L222.835,178.616L191.322,178.616Z"/>
    </g>
</svg>
