<?xml version="1.0" encoding="UTF-8" standalone="no"?>
<!DOCTYPE svg PUBLIC "-//W3C//DTD SVG 1.1//EN" "http://www.w3.org/Graphics/SVG/1.1/DTD/svg11.dtd">
<svg width="100%" height="100%" viewBox="0 0 400 400" version="1.1" xmlns="http://www.w3.org/2000/svg" xmlns:xlink="http://www.w3.org/1999/xlink" xml:space="preserve" xmlns:serif="http://www.serif.com/" style="fill-rule:evenodd;clip-rule:evenodd;stroke-linejoin:round;stroke-miterlimit:2;">
    <g transform="matrix(1,0,0,1,-66.131,-60.6222)">
        <path d="M266.131,60.622C376.514,60.622 466.131,150.239 466.131,260.622C466.131,371.005 376.514,460.622 266.131,460.622C155.748,460.622 66.131,371.005 66.131,260.622C66.131,150.239 155.748,60.622 266.131,60.622ZM402.648,323.292C400.737,318.093 397.095,315.31 392.952,313.006C392.172,312.549 391.455,312.184 390.844,311.903C389.607,311.263 388.343,310.645 387.085,309.991C374.165,303.141 364.074,294.499 357.076,284.255C355.089,281.371 353.365,278.314 351.926,275.121C351.329,273.413 351.36,272.444 351.786,271.558C352.211,270.876 352.773,270.29 353.437,269.837C355.657,268.369 357.947,266.879 359.5,265.874C362.268,264.083 364.46,262.663 365.872,261.659C371.177,257.949 374.887,254.009 377.205,249.602C380.477,243.447 380.912,236.162 378.395,229.661C374.882,220.415 366.148,214.674 355.567,214.674C353.335,214.673 351.109,214.908 348.927,215.377C348.344,215.504 347.76,215.637 347.191,215.785C347.29,209.461 347.149,202.786 346.587,196.217C344.592,173.122 336.505,161.016 328.073,151.362C322.675,145.313 316.315,140.194 309.252,136.214C296.454,128.906 281.946,125.197 266.131,125.197C250.316,125.197 235.873,128.906 223.067,136.214C215.985,140.196 209.613,145.324 204.209,151.39C195.777,161.044 187.69,173.171 185.695,196.245C185.133,202.815 184.992,209.524 185.084,215.813C184.517,215.665 183.938,215.529 183.355,215.405C181.173,214.936 178.947,214.701 176.715,214.703C166.127,214.703 157.379,220.443 153.88,229.69C151.351,236.193 151.775,243.485 155.039,249.651C157.365,254.056 161.075,257.998 166.38,261.708C167.785,262.692 169.984,264.11 172.752,265.924C174.249,266.893 176.436,268.313 178.577,269.731C179.327,270.216 179.965,270.856 180.447,271.608C180.897,272.528 180.911,273.519 180.243,275.347C178.824,278.473 177.128,281.467 175.178,284.292C168.334,294.304 158.54,302.791 146.033,309.586C139.406,313.097 132.519,315.444 129.611,323.349C127.419,329.314 128.852,336.101 134.424,341.821C136.469,343.956 138.841,345.751 141.45,347.14C146.88,350.124 152.654,352.434 158.643,354.018C159.879,354.337 161.053,354.862 162.114,355.571C164.145,357.349 163.857,360.026 166.562,363.946C167.92,365.973 169.645,367.727 171.649,369.118C177.326,373.038 183.705,373.284 190.465,373.544C196.571,373.776 203.491,374.043 211.396,376.65C214.67,377.732 218.071,379.826 222.012,382.271C231.477,388.087 244.433,396.048 266.116,396.048C287.798,396.048 300.846,388.045 310.38,382.206C314.294,379.804 317.674,377.73 320.856,376.677C328.76,374.063 335.681,373.803 341.787,373.571C348.546,373.311 354.926,373.065 360.603,369.145C362.976,367.49 364.953,365.33 366.393,362.821C368.339,359.512 368.29,357.2 370.117,355.584C371.112,354.909 372.214,354.405 373.377,354.095C379.448,352.505 385.3,350.173 390.802,347.153C393.574,345.666 396.07,343.712 398.179,341.377L398.249,341.293C403.477,335.701 404.791,329.11 402.648,323.292ZM383.375,333.648C371.62,340.141 363.807,339.445 357.73,343.359C352.565,346.682 355.622,353.849 351.869,356.434C347.26,359.617 333.637,356.208 316.036,362.02C301.52,366.819 292.26,380.618 266.151,380.618C240.042,380.618 230.999,366.849 216.244,361.985C198.678,356.174 185.027,359.582 180.41,356.399C176.666,353.814 179.708,346.647 174.551,343.324C168.466,339.41 160.653,340.106 148.905,333.648C141.422,329.517 145.666,326.962 148.161,325.751C190.739,305.136 197.533,273.308 197.835,270.947C198.201,268.088 198.608,265.839 195.46,262.93C192.418,260.12 178.921,251.767 175.175,249.152C168.978,244.824 166.251,240.503 168.262,235.191C169.667,231.516 173.096,230.132 176.693,230.132C177.83,230.136 178.963,230.263 180.073,230.512C186.872,231.985 193.479,235.395 197.294,236.315C197.753,236.433 198.225,236.497 198.699,236.505C200.739,236.505 201.453,235.479 201.313,233.147C200.877,225.706 199.823,211.204 200.996,197.65C202.606,179.003 208.613,169.764 215.751,161.592C219.18,157.664 235.291,140.64 266.101,140.64C296.911,140.64 313.064,157.594 316.492,161.508C323.638,169.679 329.652,178.919 331.247,197.566C332.421,211.119 331.409,225.629 330.931,233.062C330.77,235.514 331.507,236.421 333.545,236.421C334.019,236.413 334.491,236.349 334.95,236.231C338.772,235.311 345.376,231.903 352.176,230.427C353.285,230.179 354.419,230.051 355.555,230.048C359.174,230.048 362.582,231.453 363.987,235.107C365.996,240.418 363.284,244.739 357.08,249.068C353.335,251.681 339.838,260.028 336.795,262.846C333.64,265.755 334.055,268.002 334.42,270.863C334.722,273.259 341.509,305.088 384.095,325.667C386.614,326.925 390.858,329.482 383.375,333.648Z"/>
    </g>
</svg>
