<?xml version="1.0" encoding="UTF-8" standalone="no"?>
<!DOCTYPE svg PUBLIC "-//W3C//DTD SVG 1.1//EN" "http://www.w3.org/Graphics/SVG/1.1/DTD/svg11.dtd">
<svg width="100%" height="100%" viewBox="0 0 400 400" version="1.1" xmlns="http://www.w3.org/2000/svg" xmlns:xlink="http://www.w3.org/1999/xlink" xml:space="preserve" xmlns:serif="http://www.serif.com/" style="fill-rule:evenodd;clip-rule:evenodd;stroke-linejoin:round;stroke-miterlimit:2;">
    <g transform="matrix(1,0,0,1,-113.694,-48.3766)">
        <path d="M313.694,48.377C424.077,48.377 513.694,137.994 513.694,248.377C513.694,358.76 424.077,448.377 313.694,448.377C203.311,448.377 113.694,358.76 113.694,248.377C113.694,137.994 203.311,48.377 313.694,48.377ZM244.224,210.53C242.891,210.53 241.946,211.476 241.817,212.808L239.926,268.676L241.817,297.813C241.946,299.146 242.891,300.091 244.224,300.091C245.427,300.091 246.501,299.146 246.501,297.813L248.779,268.676L246.501,212.808C246.501,211.476 245.427,210.53 244.224,210.53ZM303.444,195.704C302.842,195.36 302.241,195.102 301.553,195.102C300.865,195.102 300.221,195.36 299.662,195.704C298.717,196.305 298.115,197.38 298.115,198.583L297.986,199.314L296.783,268.418C296.783,268.418 296.783,268.547 298.115,296.61L298.115,296.739C298.115,297.469 298.373,298.157 298.846,298.759C299.576,299.575 300.522,300.091 301.596,300.091C302.541,300.091 303.401,299.618 304.003,299.017C304.733,298.415 305.077,297.598 305.077,296.61L305.206,293.731L306.538,268.547L305.12,198.583C304.991,197.38 304.389,196.305 303.444,195.704ZM289.95,206.447C288.145,206.447 286.726,207.866 286.598,209.8L285.179,268.547L286.598,296.739C286.726,298.544 288.145,299.962 289.95,299.962C291.755,299.962 293.173,298.544 293.173,296.739L294.849,268.547L293.173,209.8C293.044,207.866 291.755,206.447 289.95,206.447ZM233.265,220.887C232.062,220.887 231.245,221.833 231.116,223.036L228.967,268.418L231.116,297.77C231.245,298.974 232.062,299.919 233.265,299.919C234.339,299.919 235.285,298.974 235.285,297.77L237.777,268.418L235.285,223.036C235.285,221.833 234.339,220.887 233.265,220.887ZM417.458,232.362C412.816,232.362 408.39,233.307 404.307,234.983C401.557,204.557 376.029,180.662 344.872,180.662C337.223,180.662 329.831,182.08 323.256,184.702C320.634,185.647 319.903,186.593 319.903,188.656L319.903,295.965C319.903,298.114 321.58,299.661 323.599,299.919L417.415,299.919C436.023,299.919 451.193,284.878 451.193,266.269C451.236,247.532 436.066,232.362 417.458,232.362ZM266.915,203.095C265.497,203.095 264.164,204.428 264.164,205.975L262.488,268.418L264.164,297.169C264.293,298.716 265.497,299.919 266.915,299.919C268.462,299.919 269.665,298.716 269.794,297.169L271.685,268.418L269.794,205.975C269.665,204.428 268.462,203.095 266.915,203.095ZM278.389,204.557C276.713,204.557 275.424,205.889 275.424,207.522L273.748,268.418L275.424,296.954C275.553,298.63 276.756,299.919 278.389,299.919C280.022,299.919 281.354,298.587 281.354,296.954L283.159,268.418L281.354,207.522C281.354,205.846 280.065,204.557 278.389,204.557ZM314.918,189.128C314.446,188.785 313.715,188.527 313.113,188.527C312.168,188.527 311.308,188.871 310.707,189.343C309.89,190.074 309.374,191.148 309.289,192.223L309.289,192.566L307.87,268.504L308.601,282.471L309.332,296.094C309.46,298.114 311.136,299.79 313.156,299.79C315.176,299.79 316.852,298.114 316.852,296.094L318.528,268.504L316.852,192.223C316.68,190.933 315.993,189.73 314.918,189.128ZM255.569,205.373C254.237,205.373 253.077,206.576 253.077,207.995L251.186,268.418L253.077,297.298C253.206,298.716 254.28,299.79 255.569,299.79C256.987,299.79 258.062,298.716 258.191,297.298L260.339,268.418L258.191,207.995C258.105,206.576 257.03,205.373 255.569,205.373ZM224.068,240.484L226.561,268.418L224.068,297.77C223.939,298.845 223.123,299.661 222.177,299.661C221.232,299.661 220.372,298.845 220.372,297.77L217.966,268.418L220.372,240.484C220.372,239.539 221.189,238.679 222.177,238.679C223.123,238.679 223.939,239.539 224.068,240.484ZM211.176,236.788C210.359,236.788 209.628,237.39 209.628,238.335L207.136,268.418L209.628,297.555C209.628,298.501 210.359,299.103 211.176,299.103C211.992,299.103 212.723,298.501 212.852,297.555L215.602,268.418L212.852,238.335C212.723,237.39 211.992,236.788 211.176,236.788ZM200.303,237.734C199.572,237.734 198.971,238.335 198.885,239.152L196.392,268.418L198.885,296.696C199.014,297.427 199.615,298.028 200.303,298.028C201.033,298.028 201.635,297.427 201.635,296.696L204.6,268.418L201.635,239.152C201.635,238.335 201.033,237.734 200.303,237.734ZM189.43,242.633C188.828,242.633 188.356,243.106 188.356,243.707L185.605,268.418L188.356,292.527C188.356,293.258 188.828,293.731 189.43,293.731C190.032,293.731 190.504,293.258 190.633,292.656L193.728,268.418L190.633,243.707C190.504,243.106 190.032,242.633 189.43,242.633ZM179.288,252.044C178.686,252.044 178.342,252.517 178.213,253.119L176.194,268.418L178.213,283.459C178.342,284.061 178.686,284.534 179.288,284.534C179.889,284.534 180.233,284.061 180.362,283.459L182.769,268.418L180.362,253.119C180.233,252.517 179.889,252.044 179.288,252.044Z"/>
    </g>
</svg>
