<?xml version="1.0" encoding="UTF-8" standalone="no"?>
<!DOCTYPE svg PUBLIC "-//W3C//DTD SVG 1.1//EN" "http://www.w3.org/Graphics/SVG/1.1/DTD/svg11.dtd">
<svg width="100%" height="100%" viewBox="0 0 400 400" version="1.1" xmlns="http://www.w3.org/2000/svg" xmlns:xlink="http://www.w3.org/1999/xlink" xml:space="preserve" xmlns:serif="http://www.serif.com/" style="fill-rule:evenodd;clip-rule:evenodd;stroke-linejoin:round;stroke-miterlimit:2;">
    <g transform="matrix(1,0,0,1,-26.4842,-62.3649)">
        <g transform="matrix(0.8,0,0,0.8,38.968,47.8975)">
            <path d="M234.395,18.084C372.374,18.084 484.395,130.105 484.395,268.084C484.395,406.063 372.374,518.084 234.395,518.084C96.417,518.084 -15.605,406.063 -15.605,268.084C-15.605,130.105 96.417,18.084 234.395,18.084ZM84.395,343.548L384.395,343.548L384.395,359.54C384.395,386.945 363.097,408.971 336.927,408.971L323.116,408.971L260.019,474.176L260.019,408.971L131.863,408.971C105.694,408.971 84.395,386.945 84.395,359.54L84.395,343.548ZM84.395,326.393L384.395,326.393L384.395,264.605L84.395,264.605L84.395,326.393ZM84.395,246.868L384.395,246.868L384.395,185.08L84.395,185.08L84.395,246.868ZM336.855,101.993L131.863,101.993C105.694,101.993 84.395,124.018 84.395,151.205L84.395,167.415L384.395,167.415L384.395,151.205C384.323,124.018 363.024,101.993 336.855,101.993Z"/>
        </g>
    </g>
</svg>
