<?xml version="1.0" encoding="UTF-8" standalone="no"?>
<!DOCTYPE svg PUBLIC "-//W3C//DTD SVG 1.1//EN" "http://www.w3.org/Graphics/SVG/1.1/DTD/svg11.dtd">
<svg width="100%" height="100%" viewBox="0 0 400 400" version="1.1" xmlns="http://www.w3.org/2000/svg" xmlns:xlink="http://www.w3.org/1999/xlink" xml:space="preserve" xmlns:serif="http://www.serif.com/" style="fill-rule:evenodd;clip-rule:evenodd;stroke-linejoin:round;stroke-miterlimit:2;">
    <g transform="matrix(1,0,0,1,5.74942,-60.745)">
        <g transform="matrix(0.8,0,0,0.8,46.9661,56.8873)">
            <path d="M184.106,4.822C322.084,4.822 434.106,116.843 434.106,254.822C434.106,392.801 322.084,504.822 184.106,504.822C46.127,504.822 -65.894,392.801 -65.894,254.822C-65.894,116.843 46.127,4.822 184.106,4.822ZM285.824,398.572L67.465,398.572L67.465,304.822L36.215,304.822L36.215,429.822L317.074,429.822L317.074,304.822L285.824,304.822L285.824,398.572ZM254.809,336.072L98.559,336.072L98.559,367.088L254.809,367.088L254.809,336.072ZM261.215,297.791L108.324,265.525L101.918,296.228L254.809,328.26L261.215,297.791ZM276.684,260.838L135.043,194.666L121.996,223.182L263.559,289.197L276.684,260.838ZM301.059,229.822L181.137,129.588L161.215,153.65L281.137,253.885L301.059,229.822ZM238.793,79.822L213.793,98.572L306.996,223.807L331.996,205.057L238.793,79.822Z"/>
        </g>
    </g>
</svg>
