<?xml version="1.0" encoding="UTF-8" standalone="no"?>
<!DOCTYPE svg PUBLIC "-//W3C//DTD SVG 1.1//EN" "http://www.w3.org/Graphics/SVG/1.1/DTD/svg11.dtd">
<svg width="100%" height="100%" viewBox="0 0 400 400" version="1.1" xmlns="http://www.w3.org/2000/svg" xmlns:xlink="http://www.w3.org/1999/xlink" xml:space="preserve" xmlns:serif="http://www.serif.com/" style="fill-rule:evenodd;clip-rule:evenodd;stroke-linejoin:round;stroke-miterlimit:2;">
    <g transform="matrix(1,0,0,1,8.54982,-46.7251)">
        <path d="M191.45,46.725C301.833,46.725 391.45,136.342 391.45,246.725C391.45,357.108 301.833,446.725 191.45,446.725C81.067,446.725 -8.55,357.108 -8.55,246.725C-8.55,136.342 81.067,46.725 191.45,46.725ZM170.449,266.061L230.713,384.225L290.601,266.061L254.292,266.061L230.713,313.434L206.758,266.061L254.292,266.061L173.618,109.225L92.3,266.061L140.21,266.061L173.618,203.703L206.758,266.061L170.449,266.061Z"/>
    </g>
</svg>
