<?xml version="1.0" encoding="UTF-8" standalone="no"?>
<!DOCTYPE svg PUBLIC "-//W3C//DTD SVG 1.1//EN" "http://www.w3.org/Graphics/SVG/1.1/DTD/svg11.dtd">
<svg width="100%" height="100%" viewBox="0 0 400 400" version="1.1" xmlns="http://www.w3.org/2000/svg" xmlns:xlink="http://www.w3.org/1999/xlink" xml:space="preserve" xmlns:serif="http://www.serif.com/" style="fill-rule:evenodd;clip-rule:evenodd;stroke-linejoin:round;stroke-miterlimit:2;">
    <g transform="matrix(1,0,0,1,-28.3439,-55.9637)">
        <g transform="matrix(0.8,0,0,0.8,42.8767,46.5892)">
            <path d="M231.834,11.718C369.813,11.718 481.834,123.739 481.834,261.718C481.834,399.697 369.813,511.718 231.834,511.718C93.855,511.718 -18.166,399.697 -18.166,261.718C-18.166,123.739 93.855,11.718 231.834,11.718ZM395.89,228C363.642,228.077 332.171,218.015 305.948,199.245L305.948,330.177C305.924,395.488 252.175,449.218 186.863,449.218C121.535,449.218 67.777,395.461 67.777,330.133C67.777,264.805 121.535,211.047 186.863,211.047C192.333,211.047 197.796,211.424 203.215,212.175L203.215,278.03C197.907,276.36 192.375,275.511 186.812,275.511C156.822,275.511 132.144,300.188 132.144,330.178C132.144,360.167 156.822,384.845 186.812,384.845C216.801,384.845 241.479,360.167 241.479,330.178L241.479,74.218L305.948,74.218C305.903,79.662 306.36,85.099 307.311,90.46C311.836,114.635 326.132,135.907 346.806,149.23C361.364,158.856 378.438,163.988 395.89,163.985L395.89,228Z"/>
        </g>
    </g>
</svg>
