<?xml version="1.0" encoding="UTF-8" standalone="no"?>
<!DOCTYPE svg PUBLIC "-//W3C//DTD SVG 1.1//EN" "http://www.w3.org/Graphics/SVG/1.1/DTD/svg11.dtd">
<svg width="100%" height="100%" viewBox="0 0 400 400" version="1.1" xmlns="http://www.w3.org/2000/svg" xmlns:xlink="http://www.w3.org/1999/xlink" xml:space="preserve" xmlns:serif="http://www.serif.com/" style="fill-rule:evenodd;clip-rule:evenodd;stroke-linejoin:round;stroke-miterlimit:2;">
    <g transform="matrix(1,0,0,1,25.0526,-52.524)">
        <path d="M174.947,52.524C285.33,52.524 374.947,142.141 374.947,252.524C374.947,362.907 285.33,452.524 174.947,452.524C64.564,452.524 -25.053,362.907 -25.053,252.524C-25.053,142.141 64.564,52.524 174.947,52.524ZM255.411,372.998C248.106,380.786 228.556,390.024 203.097,390.024C138.214,390.024 124.142,342.329 124.142,314.506L124.142,237.163L98.629,237.163C95.675,237.163 93.258,234.746 93.258,231.792L93.258,195.268C93.258,191.401 95.675,187.963 99.327,186.674C132.628,174.965 143.101,145.854 144.605,123.779C145.035,117.871 148.097,115.024 153.253,115.024L191.334,115.024C194.288,115.024 196.705,117.441 196.705,120.395L196.705,182.27L241.285,182.27C244.239,182.27 246.656,184.633 246.656,187.587L246.656,231.469C246.656,234.423 244.239,236.84 241.285,236.84L196.49,236.84L196.49,308.383C196.49,326.752 209.22,337.172 233.014,327.612C235.592,326.591 237.848,325.893 239.835,326.43C241.715,326.914 242.95,328.256 243.809,330.673L255.626,365.21C256.593,367.895 257.398,370.903 255.411,372.998Z"/>
    </g>
</svg>
