<?xml version="1.0" encoding="UTF-8" standalone="no"?>
<!DOCTYPE svg PUBLIC "-//W3C//DTD SVG 1.1//EN" "http://www.w3.org/Graphics/SVG/1.1/DTD/svg11.dtd">
<svg width="100%" height="100%" viewBox="0 0 400 400" version="1.1" xmlns="http://www.w3.org/2000/svg" xmlns:xlink="http://www.w3.org/1999/xlink" xml:space="preserve" xmlns:serif="http://www.serif.com/" style="fill-rule:evenodd;clip-rule:evenodd;stroke-linejoin:round;stroke-miterlimit:2;">
    <g transform="matrix(1,0,0,1,-59.7263,-45.0409)">
        <path d="M259.726,45.041C370.109,45.041 459.726,134.658 459.726,245.041C459.726,355.424 370.109,445.041 259.726,445.041C149.343,445.041 59.726,355.424 59.726,245.041C59.726,134.658 149.343,45.041 259.726,45.041ZM187.125,117.541L135.283,166.643L135.283,343.438L197.497,343.438L197.497,392.541L249.344,343.438L290.836,343.438L384.169,255.041L384.169,117.541L187.125,117.541ZM363.426,245.239L321.95,284.512L280.464,284.512L244.156,318.887L244.156,284.512L197.497,284.512L197.497,137.188L363.426,137.188L363.426,245.239ZM332.327,173.116L311.579,173.116L311.579,232.037L332.327,232.037L332.327,173.116ZM275.302,172.863L254.554,172.863L254.554,231.811L275.302,231.811L275.302,172.863Z"/>
    </g>
</svg>
