<?xml version="1.0" encoding="UTF-8" standalone="no"?>
<!DOCTYPE svg PUBLIC "-//W3C//DTD SVG 1.1//EN" "http://www.w3.org/Graphics/SVG/1.1/DTD/svg11.dtd">
<svg width="100%" height="100%" viewBox="0 0 400 400" version="1.1" xmlns="http://www.w3.org/2000/svg" xmlns:xlink="http://www.w3.org/1999/xlink" xml:space="preserve" xmlns:serif="http://www.serif.com/" style="fill-rule:evenodd;clip-rule:evenodd;stroke-linejoin:round;stroke-miterlimit:2;">
    <g transform="matrix(1,0,0,1,-108.485,-70.2617)">
        <path d="M308.485,70.262C418.868,70.262 508.485,159.879 508.485,270.262C508.485,380.645 418.868,470.262 308.485,470.262C198.102,470.262 108.485,380.645 108.485,270.262C108.485,159.879 198.102,70.262 308.485,70.262ZM442.956,337.813L376.248,244.611C370.331,236.317 364.323,234.121 350.964,227.082C345.943,224.437 344.598,222.196 337.291,214.126C336.842,213.633 335.991,213.723 335.677,214.351C314.92,254.16 314.562,251.47 313.71,256.85C312.948,261.647 313.127,265.816 313.844,270.209C314.696,275.589 316.803,280.744 319.986,285.182L386.738,378.384C390.146,383.136 395.794,385.647 401.577,384.975C419.644,382.778 436.545,370.629 444.48,354.221C446.901,348.886 446.408,342.61 442.956,337.813ZM344.912,177.859C309.137,249.632 306.985,246.225 305.506,255.505L303.175,270.209C302.323,275.589 300.216,280.744 297.033,285.182L230.281,378.34C226.874,383.092 221.136,385.602 215.308,384.885C197.241,382.643 180.43,370.45 172.584,354.176C170.029,348.886 170.567,342.61 173.974,337.858L240.726,244.656C243.909,240.218 248.078,236.586 252.92,234.031L266.055,227.082C274.349,222.689 270.404,221.748 326.845,164.813C327.294,162.661 327.294,161.541 328.459,161.227C329.804,160.913 331.418,160.778 331.283,159.165L331.104,157.102C331.014,156.251 331.687,155.488 332.539,155.488C334.556,155.444 338.456,156.026 344.015,159.971C349.529,163.961 351.367,167.503 351.95,169.431C352.219,170.238 351.681,171.089 350.874,171.314L348.857,171.807C347.333,172.21 347.736,173.779 347.826,175.124C347.871,176.379 346.795,176.738 344.912,177.859ZM268.162,171.807C269.687,172.21 269.283,173.779 269.194,175.124C269.104,176.335 270.135,176.693 272.063,177.814C275.604,184.942 278.922,191.487 282.015,197.539C282.329,198.122 283.046,198.212 283.494,197.763C288.515,192.384 294.523,186.018 301.651,178.666C302.233,178.038 302.278,177.097 301.695,176.469C298.109,172.793 294.298,168.893 290.219,164.768C289.771,162.661 289.771,161.496 288.605,161.182C287.26,160.823 285.646,160.734 285.781,159.12C285.915,157.64 286.408,155.488 284.525,155.444C282.508,155.399 278.608,155.937 273.049,159.927C267.535,163.917 265.697,167.458 265.114,169.386C264.486,171.269 266.728,171.448 268.162,171.807Z"/>
    </g>
</svg>
