<?xml version="1.0" encoding="UTF-8" standalone="no"?>
<!DOCTYPE svg PUBLIC "-//W3C//DTD SVG 1.1//EN" "http://www.w3.org/Graphics/SVG/1.1/DTD/svg11.dtd">
<svg width="100%" height="100%" viewBox="0 0 400 400" version="1.1" xmlns="http://www.w3.org/2000/svg" xmlns:xlink="http://www.w3.org/1999/xlink" xml:space="preserve" xmlns:serif="http://www.serif.com/" style="fill-rule:evenodd;clip-rule:evenodd;stroke-linejoin:round;stroke-miterlimit:2;">
    <g transform="matrix(1,0,0,1,-100.681,-81.3614)">
        <path d="M300.681,81.361C411.064,81.361 500.681,170.978 500.681,281.361C500.681,391.744 411.064,481.361 300.681,481.361C190.298,481.361 100.681,391.744 100.681,281.361C100.681,170.978 190.298,81.361 300.681,81.361ZM171.431,336.361C166.876,336.361 163.181,340.057 163.181,344.611C163.181,362.83 177.962,377.611 196.181,377.611L405.181,377.611C423.399,377.611 438.181,362.83 438.181,344.611C438.181,340.057 434.485,336.361 429.931,336.361L171.431,336.361ZM218.181,185.111C203.013,185.111 190.681,197.443 190.681,212.611L190.681,322.611L218.181,322.611L218.181,212.611L383.181,212.611L383.181,322.611L410.681,322.611L410.681,212.611C410.681,197.443 398.349,185.111 383.181,185.111L218.181,185.111Z"/>
    </g>
</svg>
