<?xml version="1.0" encoding="UTF-8" standalone="no"?>
<!DOCTYPE svg PUBLIC "-//W3C//DTD SVG 1.1//EN" "http://www.w3.org/Graphics/SVG/1.1/DTD/svg11.dtd">
<svg width="100%" height="100%" viewBox="0 0 400 400" version="1.1" xmlns="http://www.w3.org/2000/svg" xmlns:xlink="http://www.w3.org/1999/xlink" xml:space="preserve" xmlns:serif="http://www.serif.com/" style="fill-rule:evenodd;clip-rule:evenodd;stroke-linejoin:round;stroke-miterlimit:2;">
    <g transform="matrix(1,0,0,1,-31.9155,-8.30789)">
        <g transform="matrix(0.613839,0,0,0.613839,96.6307,53.2574)">
            <g transform="matrix(1.62909,0,0,1.62909,-157.42,-86.7612)">
                <path d="M231.915,8.308C342.299,8.308 431.915,97.925 431.915,208.308C431.915,318.691 342.299,408.308 231.915,408.308C121.532,408.308 31.915,318.691 31.915,208.308C31.915,97.925 121.532,8.308 231.915,8.308ZM334.227,105.769C308.507,79.988 274.255,65.808 237.854,65.808C162.72,65.808 101.582,126.946 101.582,202.08C101.582,226.081 107.843,249.53 119.751,270.216L100.415,340.808L172.664,321.84C192.553,332.705 214.958,338.414 237.793,338.414L237.854,338.414C312.927,338.414 375.415,277.276 375.415,202.142C375.415,165.741 359.947,131.55 334.227,105.769ZM237.854,315.456C217.475,315.456 197.525,309.993 180.153,299.681L176.04,297.225L133.195,308.459L144.612,266.656L141.911,262.359C130.555,244.312 124.601,223.503 124.601,202.08C124.601,139.653 175.427,88.827 237.915,88.827C268.178,88.827 296.599,100.613 317.96,122.036C339.322,143.459 352.458,171.879 352.397,202.142C352.397,264.63 300.282,315.456 237.854,315.456ZM299.975,230.624C296.599,228.905 279.841,220.68 276.71,219.575C273.58,218.408 271.308,217.856 269.037,221.293C266.766,224.731 260.259,232.342 258.234,234.675C256.269,236.946 254.244,237.253 250.868,235.534C230.856,225.529 217.72,217.672 204.523,195.021C201.024,189.005 208.022,189.435 214.528,176.422C215.633,174.151 215.081,172.186 214.221,170.467C213.362,168.749 206.548,151.991 203.725,145.177C200.962,138.548 198.139,139.469 196.052,139.346C194.087,139.223 191.816,139.223 189.545,139.223C187.274,139.223 183.591,140.082 180.46,143.459C177.33,146.896 168.552,155.122 168.552,171.879C168.552,188.637 180.767,204.842 182.424,207.114C184.143,209.385 206.426,243.76 240.616,258.553C262.224,267.884 270.695,268.682 281.498,267.086C288.066,266.104 301.632,258.86 304.456,250.88C307.279,242.901 307.279,236.087 306.42,234.675C305.622,233.14 303.351,232.281 299.975,230.624Z"/>
            </g>
        </g>
    </g>
</svg>
