<?xml version="1.0" encoding="UTF-8" standalone="no"?>
<!DOCTYPE svg PUBLIC "-//W3C//DTD SVG 1.1//EN" "http://www.w3.org/Graphics/SVG/1.1/DTD/svg11.dtd">
<svg width="100%" height="100%" viewBox="0 0 400 400" version="1.1" xmlns="http://www.w3.org/2000/svg" xmlns:xlink="http://www.w3.org/1999/xlink" xml:space="preserve" xmlns:serif="http://www.serif.com/" style="fill-rule:evenodd;clip-rule:evenodd;stroke-linejoin:round;stroke-miterlimit:2;">
    <g transform="matrix(1,0,0,1,-33.5294,-65.6687)">
        <path d="M233.529,65.669C343.912,65.669 433.529,155.286 433.529,265.669C433.529,376.052 343.912,465.669 233.529,465.669C123.146,465.669 33.529,376.052 33.529,265.669C33.529,155.286 123.146,65.669 233.529,65.669ZM205.13,382.482L355.029,403.169L355.029,273.28L205.13,273.28L205.13,382.482ZM80.029,365.295L192.73,380.825L192.73,273.28L80.029,273.28L80.029,365.295ZM80.029,166.043L192.73,150.512L192.73,259.408L80.029,259.408L80.029,166.043ZM205.13,148.855L205.13,259.408L355.029,259.408L355.029,128.169L205.13,148.855Z"/>
    </g>
</svg>
