<?xml version="1.0" encoding="UTF-8" standalone="no"?>
<!DOCTYPE svg PUBLIC "-//W3C//DTD SVG 1.1//EN" "http://www.w3.org/Graphics/SVG/1.1/DTD/svg11.dtd">
<svg width="100%" height="100%" viewBox="0 0 400 400" version="1.1" xmlns="http://www.w3.org/2000/svg" xmlns:xlink="http://www.w3.org/1999/xlink" xml:space="preserve" xmlns:serif="http://www.serif.com/" style="fill-rule:evenodd;clip-rule:evenodd;stroke-linejoin:round;stroke-miterlimit:2;">
    <g transform="matrix(1,0,0,1,-55.9977,-41.9064)">
        <path d="M255.998,41.906C366.381,41.906 455.998,131.523 455.998,241.906C455.998,352.289 366.381,441.906 255.998,441.906C145.615,441.906 55.998,352.289 55.998,241.906C55.998,131.523 145.615,41.906 255.998,41.906ZM335.056,117.613L377.244,117.613L285.099,222.904L393.498,366.2L308.643,366.2L242.134,279.314L166.124,366.2L123.876,366.2L222.414,253.559L118.498,117.613L205.503,117.613L265.559,197.029L335.056,117.613ZM320.236,340.983L343.601,340.983L192.775,141.515L167.677,141.515L320.236,340.983Z"/>
    </g>
</svg>
