<?xml version="1.0" encoding="UTF-8" standalone="no"?>
<!DOCTYPE svg PUBLIC "-//W3C//DTD SVG 1.1//EN" "http://www.w3.org/Graphics/SVG/1.1/DTD/svg11.dtd">
<svg width="100%" height="100%" viewBox="0 0 400 400" version="1.1" xmlns="http://www.w3.org/2000/svg" xmlns:xlink="http://www.w3.org/1999/xlink" xml:space="preserve" xmlns:serif="http://www.serif.com/" style="fill-rule:evenodd;clip-rule:evenodd;stroke-linejoin:round;stroke-miterlimit:2;">
    <g transform="matrix(1,0,0,1,-83.5766,-59.0012)">
        <path d="M283.577,59.001C393.96,59.001 483.577,148.618 483.577,259.001C483.577,369.384 393.96,459.001 283.577,459.001C173.194,459.001 83.577,369.384 83.577,259.001C83.577,148.618 173.194,59.001 283.577,59.001ZM415.33,192.576C412.167,180.667 402.849,171.288 391.017,168.105C369.572,162.322 283.577,162.322 283.577,162.322C283.577,162.322 197.582,162.322 176.136,168.105C164.304,171.289 154.986,180.667 151.823,192.576C146.077,214.161 146.077,259.197 146.077,259.197C146.077,259.197 146.077,304.232 151.823,325.817C154.986,337.726 164.304,346.714 176.136,349.897C197.582,355.681 283.577,355.681 283.577,355.681C283.577,355.681 369.571,355.681 391.017,349.897C402.849,346.714 412.167,337.726 415.33,325.817C421.077,304.232 421.077,259.197 421.077,259.197C421.077,259.197 421.077,214.161 415.33,192.576ZM255.451,300.085L255.451,218.308L327.326,259.198L255.451,300.085Z"/>
    </g>
</svg>
